<svg width="65" height="57" viewBox="0 0 65 57" fill="none" xmlns="http://www.w3.org/2000/svg">
<path d="M38.0156 45.2446H8.87695V13.4369L38.0156 12.2129" stroke="#1D1D1B" stroke-width="2.21005" stroke-linecap="round" stroke-linejoin="round"/>
<path opacity="0.4" d="M21.8495 29.3848C20.1413 29.8122 18.3608 29.8644 16.6304 29.5378V23.8597C17.6395 23.3681 18.7565 23.14 19.8775 23.1967C23.4136 23.1967 23.7026 25.8658 23.7026 26.3928C23.7463 27.0075 23.5981 27.6206 23.2783 28.1475C22.9585 28.6743 22.4831 29.0889 21.9176 29.3338M19.6565 33.1929C20.4467 33.3034 21.1956 33.6135 21.8325 34.0939C24.0426 35.879 24.1446 39.058 24.1446 40.8941H28.1057C28.1057 39.092 28.0037 34.655 24.8586 32.1049C25.7914 31.4949 26.5364 30.6378 27.0106 29.6292C27.4849 28.6207 27.6698 27.5002 27.5447 26.3928C27.3407 21.4967 23.6346 19.3886 18.8575 19.5926C14.6584 19.8306 12.6523 21.2927 12.6523 21.4117V40.7751H16.6134V32.9039C17.6206 32.8794 18.6279 32.9477 19.6225 33.1079M34.5828 20.7486C34.5145 21.2224 34.3115 21.6665 33.998 22.0283C33.6845 22.39 33.2738 22.6541 32.8146 22.7891C32.3553 22.9242 31.867 22.9245 31.4076 22.7901C30.9482 22.6557 30.5371 22.3922 30.2231 22.0309C29.9091 21.6696 29.7055 21.2257 29.6365 20.7521C29.5674 20.2785 29.6359 19.7949 29.8337 19.3591C30.0314 18.9232 30.3502 18.5532 30.7521 18.2933C31.154 18.0333 31.6221 17.8942 32.1008 17.8926C32.4493 17.9142 32.7901 18.0044 33.1037 18.1581C33.4172 18.3118 33.6974 18.5259 33.928 18.7881C34.1586 19.0503 34.3351 19.3554 34.4475 19.686C34.5599 20.0167 34.6059 20.3662 34.5828 20.7146" fill="#1D1D1B"/>
<path d="M26.4897 12.6557L17.6665 13.0297V3.54354L26.4897 1.14648M1.24414 55.5987V45.6195H63.7375V55.5987H1.24414Z" stroke="#1D1D1B" stroke-width="2.21005" stroke-linecap="round" stroke-linejoin="round"/>
<path d="M26.4902 4.46094V9.74805" stroke="#1D1D1B" stroke-width="1.02002" stroke-linecap="round" stroke-linejoin="round"/>
<path d="M26.4902 12.6557L34.5824 12.3157V3.42454L26.4902 1.14648M38.0165 12.1967L52.6028 15.0868V45.2455H38.0165" stroke="#1D1D1B" stroke-width="2.21005" stroke-linecap="round" stroke-linejoin="round"/>
<path d="M38.0156 41.9652V15.7676" stroke="#1D1D1B" stroke-width="1.02002" stroke-linecap="round" stroke-linejoin="round"/>
</svg>
