<svg width="65" height="73" viewBox="0 0 65 73" fill="none" xmlns="http://www.w3.org/2000/svg">
<path d="M33.4681 48.2741C45.4767 48.2741 55.2116 38.5392 55.2116 26.5306C55.2116 14.522 45.4767 4.78711 33.4681 4.78711C21.4595 4.78711 11.7246 14.522 11.7246 26.5306C11.7246 38.5392 21.4595 48.2741 33.4681 48.2741Z" stroke="#1D1D1B" stroke-width="2.48206" stroke-linecap="round" stroke-linejoin="round"/>
<path d="M47.2031 43.377L61.1094 57.2833" stroke="#1D1D1B" stroke-width="2.48206" stroke-linecap="round" stroke-linejoin="round"/>
<mask id="mask0_293_14344" style="mask-type:luminance" maskUnits="userSpaceOnUse" x="0" y="0" width="65" height="73">
<path d="M57.0809 14.2731C59.5665 19.1762 60.4171 24.7462 59.5081 30.1676C58.5991 35.589 55.9782 40.577 52.0293 44.4011C48.0803 48.2253 43.0108 50.6847 37.563 51.4192C32.1152 52.1537 26.5753 51.1247 21.7546 48.483C16.9339 45.8412 13.0856 41.7255 10.7732 36.7384C8.46088 31.7513 7.80592 26.1549 8.90428 20.7687C10.0026 15.3824 12.7966 10.4893 16.8771 6.80583C20.9575 3.12237 26.1101 0.842064 31.5803 0.298828H17.453L0.724609 9.51303V57.2841L32.8383 72.4654L55.2108 62.2652L64.901 18.5912L57.0809 14.2731Z" fill="white"/>
</mask>
<g mask="url(#mask0_293_14344)">
<path d="M4.125 18.8296L18.1333 11.6895L46.2349 25.7658L32.2266 32.9059" stroke="#706F6F" stroke-width="1.85304" stroke-linecap="round" stroke-linejoin="round"/>
<path d="M32.2264 32.905L7.50781 20.5117" stroke="#706F6F" stroke-width="0.969022" stroke-linecap="round" stroke-linejoin="round"/>
<path d="M46.2349 25.7662V58.832L32.2266 65.9721L4.125 51.8788V18.8301" stroke="#706F6F" stroke-width="1.85304" stroke-linecap="round" stroke-linejoin="round"/>
<path d="M32.2266 35.7617V61.7723" stroke="#706F6F" stroke-width="0.850019" stroke-linecap="round" stroke-linejoin="round"/>
<path opacity="0.3" d="M28.8597 39.8938C28.8597 41.4409 27.8057 42.1549 26.4797 41.4919C25.7713 41.0717 25.1813 40.4784 24.7649 39.7677C24.3486 39.057 24.1197 38.2522 24.0996 37.4288C24.0996 35.8647 25.1706 35.1507 26.4797 35.8137C27.1905 36.2355 27.782 36.8314 28.1985 37.5453C28.6149 38.2592 28.8425 39.0675 28.8597 39.8938Z" fill="#1D1D1B"/>
</g>
<mask id="mask1_293_14344" style="mask-type:luminance" maskUnits="userSpaceOnUse" x="14" y="7" width="39" height="39">
<path d="M33.4671 45.315C43.842 45.315 52.2525 36.9045 52.2525 26.5296C52.2525 16.1547 43.842 7.74414 33.4671 7.74414C23.0922 7.74414 14.6816 16.1547 14.6816 26.5296C14.6816 36.9045 23.0922 45.315 33.4671 45.315Z" fill="white"/>
</mask>
<g mask="url(#mask1_293_14344)">
<path d="M25.2214 25.3402V20.0701C25.2078 19.9573 25.2243 19.8428 25.269 19.7383C25.3138 19.6339 25.3853 19.5431 25.4764 19.4751C25.6728 19.362 25.8958 19.3033 26.1225 19.3051C26.4196 19.3035 26.7102 19.3924 26.9555 19.5601V25.3402H25.2214ZM35.9997 22.6202C35.8521 22.6907 35.7275 22.8016 35.6402 22.94C35.553 23.0784 35.5067 23.2386 35.5067 23.4022C35.5067 23.9122 35.9147 24.3202 36.8157 24.3372C37.206 24.371 37.5984 24.371 37.9887 24.3372V23.2662C37.9428 23.149 37.874 23.042 37.7865 22.9516C37.699 22.8611 37.5943 22.7889 37.4787 22.7392C37.2524 22.6223 37.0051 22.5515 36.7511 22.5311C36.4972 22.5107 36.2418 22.5409 35.9997 22.6202ZM37.8697 19.2201C38.4396 19.3385 38.9463 19.6617 39.294 20.1285C39.6417 20.5952 39.8064 21.1732 39.7568 21.7531V25.3742C39.7568 25.3742 38.5837 25.4592 37.4107 25.4762H37.3087C36.3613 25.5811 35.4057 25.3721 34.5886 24.8812C34.3694 24.7088 34.1915 24.4896 34.068 24.2396C33.9444 23.9895 33.8784 23.715 33.8746 23.4362C33.8547 23.1133 33.9272 22.7914 34.0838 22.5084C34.2404 22.2253 34.4745 21.9928 34.7586 21.8381C35.2632 21.5583 35.8307 21.4115 36.4077 21.4115C36.9847 21.4115 37.5521 21.5583 38.0567 21.8381V21.4811C38.0567 21.0901 37.7677 20.3761 36.4417 20.3761C36.2441 20.351 36.0442 20.351 35.8467 20.3761C35.473 20.4552 35.1124 20.5869 34.7756 20.7671C34.6025 20.5828 34.5054 20.34 34.5036 20.0871C34.5034 19.9105 34.5702 19.7403 34.6906 19.6111C35.1621 19.2932 35.7025 19.092 36.267 19.024C36.8316 18.956 37.4042 19.0232 37.9377 19.2201H37.8697ZM48.546 20.5291C48.3579 20.5226 48.1707 20.5573 47.9975 20.6307C47.8242 20.7042 47.6691 20.8145 47.5429 20.9541C47.39 21.13 47.2748 21.3355 47.2046 21.5577C47.1345 21.78 47.1107 22.0143 47.1349 22.2462C47.1286 22.7392 47.3041 23.2173 47.6279 23.5892C47.8025 23.764 48.0131 23.8987 48.2451 23.9838C48.477 24.069 48.7247 24.1025 48.971 24.0822C49.2424 24.1075 49.5156 24.1075 49.787 24.0822V21.3621C49.6964 21.1088 49.527 20.8913 49.3036 20.7413C49.0802 20.5914 48.8147 20.517 48.546 20.5291ZM50.705 17.027C50.994 17.0277 51.277 17.1102 51.521 17.265V25.3742H51.3C50.892 25.3742 49.974 25.4592 49.226 25.4592C48.1922 25.5528 47.1624 25.242 46.3529 24.5922C46.0253 24.2783 45.7703 23.8965 45.6059 23.4736C45.4414 23.0507 45.3714 22.5969 45.4009 22.1441C45.3852 21.3341 45.6698 20.5469 46.1999 19.9341C46.4515 19.6747 46.7527 19.4688 47.0858 19.3286C47.4188 19.1883 47.7766 19.1168 48.1379 19.1181C48.4284 19.1054 48.7182 19.155 48.988 19.2635C49.2577 19.372 49.5012 19.5369 49.702 19.7471V17.7921C49.6917 17.6795 49.7096 17.5661 49.7541 17.4623C49.7987 17.3584 49.8684 17.2672 49.957 17.197C50.1747 17.0452 50.443 16.9842 50.705 17.027ZM43.6668 19.1181C43.997 19.1007 44.3271 19.1529 44.6359 19.2711C44.7737 19.3214 44.8954 19.408 44.9881 19.5217C45.0808 19.6354 45.1412 19.772 45.1629 19.9171C45.1798 20.061 45.1625 20.2069 45.1123 20.3428C45.062 20.4787 44.9803 20.6008 44.8739 20.6991C44.3867 20.4883 43.8459 20.4349 43.3268 20.5461C43.1286 20.5779 42.9382 20.6471 42.7658 20.7501V25.3402H41.0998V19.7301C41.8892 19.3103 42.7729 19.0996 43.6668 19.1181ZM55.7541 20.4441C55.5246 20.4458 55.2982 20.4981 55.0911 20.5971C54.9078 20.6868 54.7456 20.8142 54.6151 20.9711C54.4802 21.1445 54.3767 21.3401 54.3091 21.5491C54.2407 21.7868 54.2064 22.0329 54.2071 22.2802C54.2075 22.5218 54.2419 22.7621 54.3091 22.9942C54.3727 23.2048 54.4766 23.4011 54.6151 23.5722C54.7395 23.7283 54.8961 23.8558 55.0741 23.9462C55.2849 24.0318 55.5096 24.0779 55.7371 24.0822C55.9601 24.0879 56.1814 24.0414 56.3831 23.9462C56.5715 23.8568 56.7393 23.7295 56.8761 23.5722C57.0146 23.4011 57.1185 23.2048 57.1821 22.9942C57.2522 22.763 57.281 22.5213 57.2671 22.2802C57.2819 22.0334 57.2531 21.7859 57.1821 21.5491C57.1146 21.3401 57.011 21.1445 56.8761 20.9711C56.7393 20.8138 56.5715 20.6865 56.3831 20.5971C56.1875 20.4998 55.9726 20.4475 55.7541 20.4441ZM55.7541 19.0841C56.219 19.0696 56.6818 19.1506 57.1141 19.3221C57.4972 19.4859 57.8482 19.7161 58.1512 20.0021C58.4429 20.2905 58.669 20.6384 58.8142 21.0221C58.9709 21.4226 59.046 21.8503 59.0352 22.2802C59.0377 22.7094 58.9629 23.1355 58.8142 23.5382C58.6638 23.9237 58.435 24.2738 58.1424 24.5665C57.8498 24.8591 57.4997 25.0878 57.1141 25.2382C56.2361 25.5608 55.2721 25.5608 54.3941 25.2382C54.0138 25.0865 53.6671 24.8612 53.3741 24.5752C53.0736 24.2906 52.8412 23.942 52.694 23.5552C52.5454 23.1525 52.4705 22.7264 52.473 22.2972C52.4788 21.8687 52.5534 21.4439 52.694 21.0391C52.852 20.658 53.083 20.3115 53.3741 20.0191C53.661 19.7336 54.002 19.5082 54.3771 19.3561C54.8174 19.1683 55.2925 19.0756 55.7711 19.0841H55.7541ZM29.8625 19.3221C30.6669 19.0835 31.5232 19.0835 32.3276 19.3221C32.7055 19.4114 33.0415 19.6274 33.2796 19.9341C33.3744 20.1067 33.4123 20.3048 33.3878 20.5001C33.3634 20.6955 33.2779 20.8782 33.1436 21.0221L32.9906 21.1581C32.6506 20.8964 32.2552 20.7161 31.8346 20.6311H31.2906C30.8435 20.6194 30.4099 20.7843 30.0835 21.0901C29.9215 21.2618 29.797 21.4654 29.718 21.6878C29.639 21.9103 29.6071 22.1467 29.6245 22.3822C29.6058 22.8609 29.7699 23.3289 30.0835 23.6912C30.2262 23.8444 30.4004 23.9648 30.5941 24.044C30.7878 24.1233 30.9965 24.1595 31.2056 24.1502C31.546 24.1459 31.8819 24.0706 32.1916 23.9292C32.3492 23.8429 32.4974 23.7404 32.6336 23.6232L33.4156 24.7622C33.1673 24.9717 32.8857 25.1383 32.5826 25.2552H32.4296C31.9859 25.4042 31.5206 25.4789 31.0526 25.4762C30.2361 25.4693 29.4525 25.1535 28.8595 24.5922C28.5685 24.3027 28.3324 23.9629 28.1625 23.5892C27.991 23.1569 27.91 22.694 27.9245 22.2292C27.9108 21.7754 27.9918 21.3238 28.1625 20.9031C28.3267 20.5262 28.5635 20.1854 28.8595 19.9001C29.1523 19.6429 29.4932 19.4464 29.8625 19.3221Z" fill="#010101"/>
<path d="M26.088 18.7268C26.6889 18.7268 27.176 18.2397 27.176 17.6388C27.176 17.0379 26.6889 16.5508 26.088 16.5508C25.4871 16.5508 25 17.0379 25 17.6388C25 18.2397 25.4871 18.7268 26.088 18.7268Z" fill="#010101"/>
<path d="M24.2009 25.2882C24.2459 24.6632 24.1414 24.0366 23.896 23.4601C23.6507 22.8836 23.2715 22.3739 22.7899 21.9731C23.1727 21.7601 23.4865 21.4421 23.6944 21.0565C23.9023 20.6709 23.9954 20.2339 23.9629 19.797C23.8609 17.91 22.2629 17.094 20.1718 17.196C19.2218 17.1571 18.2815 17.3996 17.4688 17.893V25.3392H19.1688V22.2961C19.5954 22.2906 20.0217 22.319 20.4438 22.3811C20.7774 22.432 21.0962 22.5537 21.3788 22.7381C21.7437 23.0516 22.0272 23.449 22.2048 23.8961C22.3825 24.3432 22.4491 24.8267 22.3989 25.3052H24.0989L24.2009 25.2882ZM21.4808 20.9531C20.7453 21.0953 19.9893 21.0953 19.2538 20.9531V18.828C19.6935 18.6398 20.1699 18.5526 20.6478 18.573C22.2119 18.573 22.3479 19.61 22.3479 19.831C22.3665 20.0771 22.3009 20.3222 22.1619 20.5261C22.0229 20.7299 21.8187 20.8805 21.5828 20.9531H21.4808Z" fill="#010101"/>
<g opacity="0.6">
<path d="M19.4913 31.5443C19.4944 31.5756 19.4902 31.6072 19.4791 31.6366C19.4679 31.666 19.4502 31.6924 19.4271 31.7138C19.4041 31.7352 19.3764 31.751 19.3463 31.7599C19.3161 31.7688 19.2843 31.7707 19.2533 31.7653H17.8933C17.8623 31.7707 17.8305 31.7688 17.8004 31.7599C17.7702 31.751 17.7425 31.7352 17.7195 31.7138C17.6964 31.6924 17.6787 31.666 17.6675 31.6366C17.6564 31.6072 17.6522 31.5756 17.6553 31.5443C17.6553 31.3913 17.7403 31.3233 17.8933 31.3233H18.3183V29.4192L17.9273 29.6572C17.9114 29.6648 17.8939 29.6687 17.8763 29.6687C17.8586 29.6687 17.8412 29.6648 17.8253 29.6572C17.8042 29.6677 17.7809 29.6732 17.7573 29.6732C17.7337 29.6732 17.7104 29.6677 17.6893 29.6572C17.6732 29.6017 17.6732 29.5428 17.6893 29.4872C17.689 29.4479 17.7001 29.4093 17.7212 29.3762C17.7423 29.343 17.7725 29.3166 17.8083 29.3002L18.4203 28.8922C18.4926 28.8719 18.569 28.8719 18.6413 28.8922C18.6709 28.8796 18.7027 28.8731 18.7348 28.8731C18.7669 28.8731 18.7988 28.8796 18.8283 28.8922C18.8548 28.9577 18.8548 29.0308 18.8283 29.0962V31.3913H19.2533C19.4063 31.3913 19.4913 31.3913 19.4913 31.5443ZM20.0693 31.3913C19.9018 31.041 19.8149 30.6576 19.8149 30.2693C19.8149 29.8809 19.9018 29.4976 20.0693 29.1472C20.1542 29.0235 20.2686 28.923 20.4022 28.8547C20.5358 28.7864 20.6844 28.7526 20.8344 28.7562C20.9849 28.7493 21.1345 28.7817 21.2687 28.8503C21.4028 28.9189 21.5168 29.0212 21.5994 29.1472C21.7783 29.4942 21.8716 29.8789 21.8716 30.2693C21.8716 30.6596 21.7783 31.0443 21.5994 31.3913C21.5168 31.5173 21.4028 31.6196 21.2687 31.6882C21.1345 31.7568 20.9849 31.7892 20.8344 31.7823C20.6844 31.786 20.5358 31.7521 20.4022 31.6838C20.2686 31.6156 20.1542 31.515 20.0693 31.3913ZM21.2254 31.1023C21.3278 30.837 21.3741 30.5533 21.3614 30.2693C21.3778 29.985 21.3313 29.7006 21.2254 29.4362C21.1963 29.3573 21.1425 29.2899 21.0721 29.244C21.0017 29.1981 20.9183 29.176 20.8344 29.1812C20.7514 29.1809 20.6702 29.2049 20.6007 29.2503C20.5312 29.2956 20.4765 29.3602 20.4433 29.4362C20.3467 29.7027 20.3062 29.9864 20.3243 30.2693C20.3076 30.5521 20.3481 30.8354 20.4433 31.1023C20.4765 31.1783 20.5312 31.243 20.6007 31.2883C20.6702 31.3336 20.7514 31.3576 20.8344 31.3573C20.9163 31.3637 20.9981 31.3442 21.0683 31.3015C21.1385 31.2588 21.1935 31.195 21.2254 31.1193V31.1023ZM22.3984 31.3913C22.2309 31.041 22.1439 30.6576 22.1439 30.2693C22.1439 29.8809 22.2309 29.4976 22.3984 29.1472C22.4833 29.0235 22.5977 28.923 22.7313 28.8547C22.8649 28.7864 23.0134 28.7526 23.1634 28.7562C23.3139 28.7493 23.4636 28.7817 23.5978 28.8503C23.7319 28.9189 23.8459 29.0212 23.9284 29.1472C24.1073 29.4942 24.2007 29.8789 24.2007 30.2693C24.2007 30.6596 24.1073 31.0443 23.9284 31.3913C23.8459 31.5173 23.7319 31.6196 23.5978 31.6882C23.4636 31.7568 23.3139 31.7892 23.1634 31.7823C23.0134 31.786 22.8649 31.7521 22.7313 31.6838C22.5977 31.6156 22.4833 31.515 22.3984 31.3913ZM23.5544 31.1023C23.6568 30.837 23.7032 30.5533 23.6904 30.2693C23.7068 29.985 23.6604 29.7006 23.5544 29.4362C23.5253 29.3573 23.4716 29.2899 23.4011 29.244C23.3307 29.1981 23.2473 29.176 23.1634 29.1812C23.0805 29.1809 22.9992 29.2049 22.9298 29.2503C22.8603 29.2956 22.8056 29.3602 22.7724 29.4362C22.6758 29.7027 22.6352 29.9864 22.6534 30.2693C22.6367 30.5521 22.6771 30.8354 22.7724 31.1023C22.8056 31.1783 22.8603 31.243 22.9298 31.2883C22.9992 31.3336 23.0805 31.3576 23.1634 31.3573C23.2558 31.3803 23.3534 31.3688 23.4379 31.325C23.5224 31.2812 23.588 31.208 23.6224 31.1193L23.5544 31.1023ZM24.7954 30.3373C24.658 30.1512 24.5917 29.922 24.6084 29.6912C24.5879 29.4495 24.6542 29.2085 24.7954 29.0112C24.8587 28.9343 24.9397 28.874 25.0316 28.8354C25.1234 28.7969 25.2233 28.7814 25.3225 28.7902C25.419 28.7828 25.516 28.799 25.6049 28.8375C25.6937 28.876 25.7719 28.9357 25.8325 29.0112C25.9797 29.2062 26.0521 29.4475 26.0365 29.6912C26.0526 29.9299 25.98 30.166 25.8325 30.3543C25.7727 30.4318 25.6952 30.494 25.6064 30.5354C25.5177 30.5768 25.4203 30.5963 25.3225 30.5923C25.2205 30.5957 25.1193 30.5742 25.0275 30.5298C24.9357 30.4854 24.856 30.4193 24.7954 30.3373ZM25.5435 30.0993C25.5701 29.9588 25.5701 29.8147 25.5435 29.6742C25.5531 29.5276 25.5238 29.3809 25.4585 29.2492C25.4438 29.2075 25.416 29.1717 25.3792 29.1472C25.3424 29.1226 25.2986 29.1107 25.2545 29.1132C25.2099 29.1083 25.1649 29.1171 25.1254 29.1383C25.0859 29.1596 25.0539 29.1923 25.0334 29.2322C25.0006 29.3777 25.0006 29.5287 25.0334 29.6742C24.9982 29.8137 24.9982 29.9598 25.0334 30.0993C25.0512 30.1423 25.0822 30.1787 25.1219 30.2031C25.1616 30.2275 25.208 30.2388 25.2545 30.2353C25.3109 30.2525 25.3718 30.2481 25.4252 30.2229C25.4786 30.1978 25.5207 30.1537 25.5435 30.0993ZM25.6625 31.7993C25.6465 31.8069 25.6291 31.8108 25.6115 31.8108C25.5938 31.8108 25.5764 31.8069 25.5605 31.7993C25.5219 31.8123 25.4801 31.8123 25.4415 31.7993C25.4244 31.7556 25.4244 31.707 25.4415 31.6633C25.4318 31.6185 25.4318 31.5721 25.4415 31.5273L26.9035 28.8922C26.9101 28.8704 26.921 28.8501 26.9356 28.8326C26.9502 28.8151 26.9682 28.8007 26.9885 28.7902C27.0044 28.7827 27.0218 28.7787 27.0395 28.7787C27.0571 28.7787 27.0746 28.7827 27.0905 28.7902C27.1093 28.7823 27.1296 28.7782 27.15 28.7782C27.1704 28.7782 27.1907 28.7823 27.2095 28.7902C27.2266 28.834 27.2266 28.8825 27.2095 28.9262C27.2252 28.976 27.2252 29.0294 27.2095 29.0792L25.7985 31.6973C25.7985 31.6973 25.7985 31.7823 25.6625 31.7993ZM26.8015 31.5613C26.6654 31.3617 26.5996 31.1224 26.6145 30.8813C26.6008 30.6456 26.6667 30.4121 26.8015 30.2183C26.8648 30.1404 26.9454 30.0783 27.0369 30.037C27.1284 29.9957 27.2282 29.9763 27.3285 29.9803C27.4263 29.9762 27.5237 29.9957 27.6125 30.0372C27.7012 30.0786 27.7787 30.1407 27.8385 30.2183C27.986 30.4065 28.0587 30.6427 28.0425 30.8813C28.0613 31.1254 27.9886 31.3678 27.8385 31.5613C27.7787 31.6389 27.7012 31.701 27.6125 31.7424C27.5237 31.7838 27.4263 31.8033 27.3285 31.7993C27.2282 31.8033 27.1284 31.7839 27.0369 31.7426C26.9454 31.7012 26.8648 31.6392 26.8015 31.5613ZM27.4985 31.3913C27.5246 31.2451 27.5246 31.0955 27.4985 30.9493C27.522 30.8086 27.522 30.665 27.4985 30.5243C27.4761 30.4854 27.4439 30.4532 27.4051 30.4307C27.3663 30.4083 27.3223 30.3965 27.2775 30.3965C27.2327 30.3965 27.1887 30.4083 27.1499 30.4307C27.1111 30.4532 27.0789 30.4854 27.0565 30.5243C27.025 30.6642 27.025 30.8093 27.0565 30.9493C27.0218 31.0946 27.0218 31.246 27.0565 31.3913C27.0789 31.4301 27.1111 31.4624 27.1499 31.4848C27.1887 31.5073 27.2327 31.5191 27.2775 31.5191C27.3223 31.5191 27.3663 31.5073 27.4051 31.4848C27.4439 31.4624 27.4761 31.4301 27.4985 31.3913ZM33.2106 28.8242H33.3466C33.402 28.8072 33.4613 28.8072 33.5166 28.8242C33.5279 28.8512 33.5336 28.8801 33.5336 28.9092C33.5336 28.9384 33.5279 28.9673 33.5166 28.9942C33.5236 29.0336 33.5236 29.0739 33.5166 29.1132L32.6496 31.5953C32.631 31.6504 32.5953 31.698 32.5476 31.7313C32.4977 31.7459 32.4446 31.7459 32.3946 31.7313C32.3392 31.7483 32.28 31.7483 32.2246 31.7313C32.177 31.698 32.1412 31.6504 32.1226 31.5953L31.5106 29.6912L30.8986 31.6123C30.88 31.6674 30.8442 31.715 30.7966 31.7483C30.7412 31.7653 30.682 31.7653 30.6266 31.7483C30.5766 31.7629 30.5235 31.7629 30.4736 31.7483C30.4259 31.715 30.3902 31.6674 30.3716 31.6123L29.5045 29.1302V29.0112C29.5063 28.9786 29.5147 28.9466 29.5293 28.9174C29.544 28.8881 29.5645 28.8622 29.5895 28.8412C29.6449 28.8242 29.7042 28.8242 29.7596 28.8412H29.8956C29.9213 28.8552 29.9438 28.8746 29.9614 28.8981C29.979 28.9216 29.9913 28.9486 29.9976 28.9772L30.6776 31.0173L31.3746 28.9772C31.3929 28.9313 31.4221 28.8904 31.4596 28.8582C31.5038 28.8439 31.5514 28.8439 31.5956 28.8582C31.6455 28.8436 31.6986 28.8436 31.7486 28.8582C31.79 28.894 31.8196 28.9414 31.8336 28.9942L32.5136 31.0343L33.2106 28.9772C33.196 28.9273 33.196 28.8742 33.2106 28.8242ZM34.1116 31.6633C33.9574 31.583 33.8369 31.4504 33.7716 31.2893C33.6822 31.1158 33.6355 30.9235 33.6355 30.7283C33.6355 30.5331 33.6822 30.3407 33.7716 30.1673C33.8415 30.0091 33.9608 29.8778 34.1116 29.7932C34.2729 29.7039 34.4543 29.6571 34.6387 29.6571C34.823 29.6571 35.0044 29.7039 35.1657 29.7932C35.3165 29.8778 35.4358 30.0091 35.5057 30.1673C35.5844 30.3438 35.6251 30.535 35.6251 30.7283C35.6251 30.9216 35.5844 31.1127 35.5057 31.2893C35.4404 31.4504 35.3199 31.583 35.1657 31.6633C35.0044 31.7526 34.823 31.7994 34.6387 31.7994C34.4543 31.7994 34.2729 31.7526 34.1116 31.6633ZM35.0127 31.2213C35.106 31.0747 35.1479 30.9013 35.1317 30.7283C35.1454 30.5555 35.1037 30.3828 35.0127 30.2353C34.9664 30.1814 34.909 30.1381 34.8445 30.1085C34.7799 30.0788 34.7097 30.0635 34.6387 30.0635C34.5676 30.0635 34.4974 30.0788 34.4329 30.1085C34.3683 30.1381 34.3109 30.1814 34.2647 30.2353C34.1736 30.3828 34.1319 30.5555 34.1457 30.7283C34.1294 30.9013 34.1713 31.0747 34.2647 31.2213C34.3075 31.2789 34.3643 31.3247 34.4298 31.3545C34.4952 31.3842 34.567 31.3969 34.6387 31.3913C34.7101 31.3953 34.7815 31.382 34.8466 31.3524C34.9118 31.3228 34.9687 31.2778 35.0127 31.2213ZM36.4067 31.6633C36.2525 31.583 36.132 31.4504 36.0667 31.2893C35.9772 31.1158 35.9306 30.9235 35.9306 30.7283C35.9306 30.5331 35.9772 30.3407 36.0667 30.1673C36.1366 30.0091 36.2559 29.8778 36.4067 29.7932C36.568 29.7039 36.7493 29.6571 36.9337 29.6571C37.1181 29.6571 37.2994 29.7039 37.4607 29.7932C37.6115 29.8778 37.7309 30.0091 37.8007 30.1673C37.8902 30.3407 37.9369 30.5331 37.9369 30.7283C37.9369 30.9235 37.8902 31.1158 37.8007 31.2893C37.7355 31.4504 37.6149 31.583 37.4607 31.6633C37.2994 31.7526 37.1181 31.7994 36.9337 31.7994C36.7493 31.7994 36.568 31.7526 36.4067 31.6633ZM37.3077 31.2213C37.4011 31.0747 37.4429 30.9013 37.4267 30.7283C37.4404 30.5555 37.3987 30.3828 37.3077 30.2353C37.2614 30.1814 37.2041 30.1381 37.1395 30.1085C37.0749 30.0788 37.0047 30.0635 36.9337 30.0635C36.8627 30.0635 36.7925 30.0788 36.7279 30.1085C36.6634 30.1381 36.606 30.1814 36.5597 30.2353C36.4687 30.3828 36.427 30.5555 36.4407 30.7283C36.4245 30.9013 36.4664 31.0747 36.5597 31.2213C36.6026 31.2789 36.6594 31.3247 36.7248 31.3545C36.7902 31.3842 36.8621 31.3969 36.9337 31.3913C37.0052 31.3953 37.0765 31.382 37.1417 31.3524C37.2068 31.3228 37.2638 31.2778 37.3077 31.2213ZM38.4127 31.7143C38.4005 31.6876 38.3942 31.6586 38.3942 31.6293C38.3942 31.6 38.4005 31.571 38.4127 31.5443V29.0452C38.3978 29.0163 38.3901 28.9843 38.3901 28.9517C38.3901 28.9192 38.3978 28.8871 38.4127 28.8582C38.4397 28.847 38.4686 28.8412 38.4977 28.8412C38.5269 28.8412 38.5558 28.847 38.5828 28.8582C38.6123 28.8456 38.6441 28.8391 38.6763 28.8391C38.7084 28.8391 38.7402 28.8456 38.7698 28.8582C38.7847 28.8871 38.7924 28.9192 38.7924 28.9517C38.7924 28.9843 38.7847 29.0163 38.7698 29.0452V31.5443C38.782 31.571 38.7883 31.6 38.7883 31.6293C38.7883 31.6586 38.782 31.6876 38.7698 31.7143C38.7402 31.7269 38.7084 31.7334 38.6763 31.7334C38.6441 31.7334 38.6123 31.7269 38.5828 31.7143C38.5558 31.7255 38.5269 31.7313 38.4977 31.7313C38.4686 31.7313 38.4397 31.7255 38.4127 31.7143ZM40.4528 32.0203C40.4343 32.0293 40.4139 32.034 40.3933 32.034C40.3727 32.034 40.3523 32.0293 40.3338 32.0203C40.2901 32.0374 40.2415 32.0374 40.1978 32.0203C40.1743 31.9882 40.1616 31.9495 40.1616 31.9098C40.1616 31.8701 40.1743 31.8314 40.1978 31.7993L41.0988 28.7392C41.1171 28.6933 41.1463 28.6524 41.1838 28.6202H41.3028C41.3465 28.6032 41.3951 28.6032 41.4388 28.6202C41.457 28.6696 41.457 28.7239 41.4388 28.7732L40.5038 31.8163C40.5158 31.8324 40.524 31.851 40.528 31.8708C40.5319 31.8905 40.5314 31.9108 40.5265 31.9304C40.5217 31.9499 40.5125 31.9681 40.4998 31.9836C40.487 31.9992 40.471 32.0117 40.4528 32.0203ZM46.4369 28.8242H46.5729C46.6283 28.8072 46.6875 28.8072 46.7429 28.8242C46.759 28.8798 46.759 28.9387 46.7429 28.9942V29.1132L45.8759 31.5953C45.8573 31.6504 45.8216 31.698 45.7739 31.7313C45.7185 31.7483 45.6593 31.7483 45.6039 31.7313C45.554 31.7459 45.5009 31.7459 45.4509 31.7313C45.4032 31.698 45.3675 31.6504 45.3489 31.5953L44.7369 29.6912L44.0569 31.6633C44.0383 31.7184 44.0025 31.766 43.9549 31.7993C43.8995 31.8163 43.8403 31.8163 43.7849 31.7993C43.7349 31.8139 43.6818 31.8139 43.6319 31.7993C43.5842 31.766 43.5485 31.7184 43.5299 31.6633L42.6628 29.1812C42.6558 29.1419 42.6558 29.1016 42.6628 29.0622C42.6516 29.0353 42.6458 29.0064 42.6458 28.9772C42.6458 28.9481 42.6516 28.9192 42.6628 28.8922C42.7239 28.8748 42.7887 28.8748 42.8498 28.8922H42.9858C42.9974 28.9368 42.9974 28.9836 42.9858 29.0282L43.6659 31.0683L44.3629 29.0282C44.3871 28.9812 44.4221 28.9404 44.4649 28.9092C44.5023 28.8758 44.5507 28.8573 44.6009 28.8573C44.6511 28.8573 44.6995 28.8758 44.7369 28.9092C44.7627 28.9232 44.7851 28.9426 44.8027 28.9661C44.8203 28.9896 44.8327 29.0166 44.8389 29.0452L45.5189 31.0853L46.1989 29.0282C46.2148 28.9749 46.2456 28.9273 46.2879 28.8912C46.3301 28.855 46.3818 28.8317 46.4369 28.8242ZM47.3379 31.6633C47.183 31.5787 47.0582 31.448 46.9809 31.2893C46.9022 31.1127 46.8615 30.9216 46.8615 30.7283C46.8615 30.535 46.9022 30.3438 46.9809 30.1673C47.0632 30.012 47.1867 29.8826 47.3379 29.7932C47.512 29.7083 47.7061 29.6731 47.899 29.6912C48.0832 29.6919 48.2644 29.7387 48.426 29.8272C48.5684 29.922 48.6852 30.0505 48.766 30.2013C48.8447 30.3778 48.8854 30.569 48.8854 30.7623C48.8854 30.9556 48.8447 31.1467 48.766 31.3233C48.6899 31.4773 48.5721 31.6069 48.426 31.6973C48.2644 31.7859 48.0832 31.8326 47.899 31.8333C47.6996 31.8308 47.5051 31.7719 47.3379 31.6633ZM48.222 31.2213C48.3213 31.0768 48.3692 30.9032 48.358 30.7283C48.3666 30.5536 48.319 30.3808 48.222 30.2353C48.1817 30.179 48.1279 30.1339 48.0654 30.1041C48.003 30.0744 47.934 30.061 47.865 30.0653C47.7933 30.0597 47.7215 30.0723 47.656 30.1021C47.5906 30.1318 47.5338 30.1776 47.4909 30.2353C47.394 30.3808 47.3463 30.5536 47.3549 30.7283C47.3437 30.9032 47.3916 31.0768 47.4909 31.2213C47.5368 31.2843 47.5992 31.3335 47.6711 31.3635C47.7431 31.3935 47.8219 31.4031 47.899 31.3913C47.9623 31.39 48.0245 31.3739 48.0805 31.3444C48.1366 31.3149 48.185 31.2727 48.222 31.2213ZM49.344 31.7143C49.3171 31.695 49.2953 31.6694 49.2805 31.6398C49.2657 31.6102 49.2583 31.5774 49.259 31.5443V29.0452C49.257 29.0095 49.2636 28.9738 49.2784 28.9413C49.2932 28.9087 49.3157 28.8802 49.344 28.8582C49.3707 28.846 49.3997 28.8397 49.429 28.8397C49.4583 28.8397 49.4873 28.846 49.514 28.8582C49.5741 28.8345 49.6409 28.8345 49.701 28.8582C49.7231 28.9186 49.7231 28.9849 49.701 29.0452V31.5443C49.7204 31.5993 49.7204 31.6593 49.701 31.7143C49.6409 31.738 49.5741 31.738 49.514 31.7143C49.4873 31.7265 49.4583 31.7328 49.429 31.7328C49.3997 31.7328 49.3707 31.7265 49.344 31.7143Z" fill="#1D1D1B"/>
</g>
<g opacity="0.6">
<path d="M22.1616 33.5179C22.188 33.5833 22.188 33.6565 22.1616 33.7219V36.1869C22.1837 36.2473 22.1837 36.3136 22.1616 36.3739C22.1148 36.4158 22.0543 36.4389 21.9916 36.4389C21.9288 36.4389 21.8683 36.4158 21.8216 36.3739C21.7995 36.3136 21.7995 36.2473 21.8216 36.1869V34.4869L21.1415 35.8299C21.1211 35.884 21.0857 35.9311 21.0395 35.9659C20.9953 35.9802 20.9478 35.9802 20.9035 35.9659C20.8598 35.983 20.8113 35.983 20.7675 35.9659C20.7311 35.9222 20.7075 35.8693 20.6995 35.8129L20.0195 34.4869V36.1869C20.0322 36.2165 20.0387 36.2483 20.0387 36.2804C20.0387 36.3126 20.0322 36.3444 20.0195 36.3739C19.9932 36.3874 19.9641 36.3944 19.9345 36.3944C19.905 36.3944 19.8758 36.3874 19.8495 36.3739C19.8258 36.3859 19.7996 36.3921 19.773 36.3921C19.7464 36.3921 19.7202 36.3859 19.6965 36.3739C19.6816 36.345 19.6738 36.313 19.6738 36.2804C19.6738 36.2479 19.6816 36.2158 19.6965 36.1869V33.7219C19.6767 33.6553 19.6767 33.5844 19.6965 33.5179C19.7261 33.5052 19.7579 33.4987 19.79 33.4987C19.8222 33.4987 19.854 33.5052 19.8835 33.5179C19.9387 33.5166 19.9927 33.5346 20.0361 33.5687C20.0795 33.6028 20.1097 33.6509 20.1215 33.7049L21.0055 35.4049L21.8896 33.7049C21.9014 33.6509 21.9316 33.6028 21.975 33.5687C22.0184 33.5346 22.0724 33.5166 22.1276 33.5179C22.1389 33.5169 22.1503 33.5169 22.1616 33.5179ZM24.2526 34.5379C24.3274 34.6269 24.384 34.7297 24.419 34.8406C24.454 34.9514 24.4668 35.0681 24.4566 35.1839V36.2039C24.4573 36.2515 24.4437 36.2982 24.4176 36.338C24.3915 36.3778 24.3541 36.4088 24.3102 36.4271C24.2663 36.4454 24.2179 36.4501 24.1712 36.4406C24.1246 36.4312 24.0819 36.4079 24.0486 36.3739C24.0374 36.347 24.0316 36.3181 24.0316 36.2889C24.0316 36.2598 24.0374 36.2309 24.0486 36.2039V36.1019C24.0086 36.2111 23.9299 36.3018 23.8276 36.3569C23.7289 36.428 23.6092 36.4639 23.4876 36.4589C23.3693 36.4567 23.253 36.4276 23.1476 36.3739C23.0364 36.3283 22.9457 36.2437 22.8926 36.1359C22.8207 36.0371 22.782 35.9181 22.782 35.7959C22.782 35.6738 22.8207 35.5547 22.8926 35.4559C22.9862 35.354 23.1125 35.2878 23.2496 35.2689C23.4758 35.2473 23.7035 35.2473 23.9296 35.2689H24.0316V35.1669C24.0366 35.0585 24.0068 34.9513 23.9466 34.8609C23.8699 34.7994 23.7727 34.769 23.6746 34.7759H23.4366L23.1476 34.8779H23.0116C22.9931 34.8869 22.9727 34.8916 22.9521 34.8916C22.9315 34.8916 22.9111 34.8869 22.8926 34.8779C22.8755 34.8342 22.8755 34.7856 22.8926 34.7419C22.8829 34.6971 22.8829 34.6507 22.8926 34.6059C22.9196 34.5594 22.9615 34.5235 23.0116 34.5039C23.1141 34.4514 23.2225 34.4114 23.3346 34.3849C23.4644 34.3684 23.5958 34.3684 23.7256 34.3849C23.9138 34.3721 24.1005 34.4263 24.2526 34.5379ZM23.8446 35.9319C23.8899 35.8845 23.9252 35.8284 23.9486 35.7671C23.9719 35.7058 23.9828 35.6405 23.9806 35.5749V35.4899H23.4876C23.4485 35.4922 23.4102 35.5024 23.3751 35.5199C23.34 35.5375 23.3089 35.562 23.2836 35.5919C23.2702 35.6182 23.2632 35.6474 23.2632 35.6769C23.2632 35.7065 23.2702 35.7356 23.2836 35.7619C23.2811 35.8028 23.2873 35.8437 23.3018 35.8819C23.3163 35.9202 23.3388 35.9549 23.3677 35.9838C23.3966 36.0127 23.4314 36.0352 23.4696 36.0497C23.5079 36.0642 23.5488 36.0704 23.5896 36.0679C23.639 36.0633 23.687 36.0489 23.7308 36.0256C23.7746 36.0022 23.8133 35.9704 23.8446 35.9319ZM26.7687 33.5179C26.7799 33.5448 26.7857 33.5737 26.7857 33.6029C26.7857 33.6321 26.7799 33.6609 26.7687 33.6879V36.1869C26.7882 36.2477 26.7882 36.3131 26.7687 36.3739C26.7164 36.4183 26.6502 36.4426 26.5817 36.4426C26.5132 36.4426 26.4469 36.4183 26.3947 36.3739C26.3752 36.3131 26.3752 36.2477 26.3947 36.1869V36.0849C26.3432 36.202 26.2532 36.298 26.1397 36.3569C26.0418 36.4341 25.9237 36.4814 25.7997 36.4929C25.6421 36.4922 25.4884 36.4449 25.3576 36.3569C25.2209 36.2652 25.1144 36.1351 25.0516 35.9829C24.9667 35.8024 24.9259 35.6043 24.9326 35.4049C24.926 35.2165 24.9669 35.0294 25.0516 34.8609C25.112 34.7115 25.2153 34.5834 25.3484 34.4927C25.4815 34.4019 25.6385 34.3526 25.7997 34.3509C25.9318 34.3458 26.0624 34.3814 26.1737 34.4529C26.286 34.5053 26.3763 34.5956 26.4287 34.7079V33.7219C26.4164 33.6952 26.4101 33.6662 26.4101 33.6369C26.4101 33.6075 26.4164 33.5785 26.4287 33.5519C26.4556 33.5407 26.4845 33.5349 26.5137 33.5349C26.5428 33.5349 26.5717 33.5407 26.5987 33.5519C26.649 33.5196 26.7097 33.5074 26.7687 33.5179ZM26.2247 35.8809C26.3023 35.7282 26.3428 35.5593 26.3428 35.3879C26.3428 35.2166 26.3023 35.0476 26.2247 34.8949C26.1664 34.8464 26.0978 34.8119 26.0241 34.7942C25.9504 34.7765 25.8736 34.7761 25.7997 34.7929C25.7289 34.7938 25.6592 34.8093 25.5948 34.8386C25.5304 34.8678 25.4728 34.9102 25.4256 34.9629C25.337 35.1052 25.2954 35.2717 25.3066 35.4389C25.2928 35.6171 25.3344 35.7953 25.4256 35.9489C25.4728 36.0017 25.5304 36.044 25.5948 36.0733C25.6592 36.1025 25.7289 36.1181 25.7997 36.1189C25.885 36.1195 25.9691 36.0978 26.0436 36.0561C26.1181 36.0144 26.1805 35.954 26.2247 35.8809ZM29.0127 35.9149C29.0326 35.964 29.0326 36.0189 29.0127 36.0679C29.0092 36.1129 28.9929 36.156 28.9658 36.1922C28.9388 36.2283 28.9019 36.2559 28.8597 36.2719C28.7641 36.3305 28.6613 36.3763 28.5537 36.4079H28.2307C28.0926 36.4159 27.9544 36.3943 27.8254 36.3444C27.6964 36.2946 27.5795 36.2177 27.4827 36.1189C27.3839 36.0151 27.3073 35.8922 27.2576 35.7577C27.2079 35.6233 27.1861 35.4801 27.1937 35.3369C27.1949 35.1493 27.2354 34.9639 27.3127 34.7929C27.3929 34.6371 27.5095 34.5029 27.6527 34.4019C27.8028 34.3154 27.9725 34.2686 28.1457 34.2659C28.3092 34.2621 28.4697 34.3097 28.6047 34.4019C28.7438 34.4753 28.8523 34.5959 28.9107 34.7419C28.9897 34.9063 29.0304 35.0865 29.0297 35.2689C29.0297 35.3879 29.0297 35.4389 28.8767 35.4389H27.6867C27.6863 35.5972 27.7472 35.7496 27.8567 35.8639C27.9062 35.9113 27.965 35.9479 28.0294 35.9713C28.0938 35.9948 28.1623 36.0045 28.2307 35.9999H28.6727C28.7339 35.9833 28.7985 35.9833 28.8597 35.9999C28.8636 35.9839 28.8707 35.9689 28.8807 35.9558C28.8906 35.9428 28.9032 35.9319 28.9176 35.9239C28.932 35.9159 28.9478 35.911 28.9642 35.9094C28.9806 35.9079 28.9971 35.9098 29.0127 35.9149ZM27.8907 34.7929C27.7964 34.9019 27.7424 35.0399 27.7377 35.1839H28.6387C28.6514 35.0431 28.6087 34.9028 28.5197 34.7929C28.4828 34.748 28.4359 34.7124 28.3828 34.6887C28.3297 34.6651 28.2718 34.6542 28.2137 34.6569C28.1534 34.6564 28.0937 34.6681 28.0381 34.6915C27.9826 34.7149 27.9324 34.7494 27.8907 34.7929ZM30.5938 33.8749C30.5421 33.8261 30.5116 33.7589 30.5088 33.6879C30.5089 33.6113 30.5395 33.5379 30.5938 33.4839C30.6225 33.4549 30.6571 33.4324 30.6952 33.4177C30.7332 33.403 30.774 33.3966 30.8148 33.3989C30.8913 33.3991 30.9647 33.4296 31.0188 33.4839C31.0496 33.5074 31.0737 33.5387 31.0886 33.5745C31.1035 33.6103 31.1088 33.6494 31.1038 33.6879C31.1058 33.7236 31.0991 33.7593 31.0843 33.7919C31.0695 33.8244 31.047 33.8529 31.0188 33.8749C30.9647 33.9291 30.8913 33.9597 30.8148 33.9599C30.774 33.9621 30.7332 33.9557 30.6952 33.9411C30.6571 33.9264 30.6225 33.9039 30.5938 33.8749ZM30.5938 36.3739C30.5717 36.3136 30.5717 36.2473 30.5938 36.1869V34.5719C30.5743 34.5169 30.5743 34.4569 30.5938 34.4019C30.6538 34.3782 30.7207 34.3782 30.7808 34.4019C30.8074 34.3897 30.8364 34.3833 30.8658 34.3833C30.8951 34.3833 30.9241 34.3897 30.9508 34.4019C30.9777 34.4212 30.9995 34.4468 31.0143 34.4764C31.0291 34.506 31.0365 34.5388 31.0358 34.5719V36.1869C31.0378 36.2227 31.0311 36.2583 31.0163 36.2909C31.0015 36.3235 30.979 36.352 30.9508 36.3739C30.9241 36.3862 30.8951 36.3925 30.8658 36.3925C30.8364 36.3925 30.8074 36.3862 30.7808 36.3739C30.731 36.3896 30.6776 36.3896 30.6278 36.3739H30.5938ZM33.2288 34.5379C33.3591 34.7204 33.4194 34.9436 33.3988 35.1669V36.1869C33.4209 36.2473 33.4209 36.3136 33.3988 36.3739C33.3387 36.3976 33.2719 36.3976 33.2118 36.3739C33.1823 36.3866 33.1505 36.3931 33.1183 36.3931C33.0862 36.3931 33.0544 36.3866 33.0248 36.3739C33.0099 36.345 33.0021 36.313 33.0021 36.2804C33.0021 36.2479 33.0099 36.2158 33.0248 36.1869V35.2009C33.0337 35.076 33.004 34.9514 32.9398 34.8439C32.8928 34.806 32.8365 34.7812 32.7767 34.7723C32.717 34.7633 32.6559 34.7704 32.5998 34.7929C32.537 34.792 32.4746 34.8036 32.4162 34.8269C32.3578 34.8502 32.3047 34.8849 32.2598 34.9289C32.1677 35.038 32.1193 35.1773 32.1238 35.3199V36.2379C32.1263 36.2721 32.1215 36.3064 32.1096 36.3384C32.0976 36.3705 32.0789 36.3997 32.0547 36.4239C32.0305 36.4481 32.0014 36.4668 31.9693 36.4787C31.9372 36.4906 31.9029 36.4955 31.8688 36.4929C31.8421 36.5052 31.8131 36.5115 31.7838 36.5115C31.7544 36.5115 31.7255 36.5052 31.6988 36.4929C31.6839 36.464 31.6761 36.432 31.6761 36.3994C31.6761 36.3669 31.6839 36.3348 31.6988 36.3059V34.6909C31.6866 34.6642 31.6802 34.6352 31.6802 34.6059C31.6802 34.5766 31.6866 34.5476 31.6988 34.5209C31.7283 34.5083 31.7601 34.5018 31.7923 34.5018C31.8244 34.5018 31.8562 34.5083 31.8858 34.5209C31.9127 34.5097 31.9416 34.5039 31.9708 34.5039C32 34.5039 32.0289 34.5097 32.0558 34.5209C32.0752 34.5759 32.0752 34.6359 32.0558 34.6909V34.7929C32.1133 34.6842 32.2021 34.5954 32.3108 34.5379C32.4293 34.4687 32.5646 34.4334 32.7018 34.4359C32.7917 34.413 32.8856 34.4102 32.9767 34.4279C33.0679 34.4455 33.1539 34.4831 33.2288 34.5379ZM35.4389 36.3739C35.2701 36.3297 35.1133 36.2484 34.9799 36.1359C34.9647 36.1041 34.9569 36.0692 34.9569 36.0339C34.9569 35.9986 34.9647 35.9638 34.9799 35.9319C34.9652 35.882 34.9652 35.8289 34.9799 35.7789C34.9987 35.771 35.0189 35.7669 35.0394 35.7669C35.0598 35.7669 35.08 35.771 35.0989 35.7789H35.2689C35.3722 35.8674 35.4943 35.9314 35.6259 35.9659C35.7612 35.985 35.8985 35.985 36.0339 35.9659C36.1908 35.9815 36.348 35.9392 36.4759 35.8469C36.5306 35.8177 36.5758 35.7732 36.6059 35.719C36.6361 35.6647 36.65 35.6029 36.6459 35.5409C36.6467 35.4906 36.6327 35.4411 36.6054 35.3988C36.5782 35.3564 36.539 35.323 36.4929 35.3029C36.3401 35.2172 36.1731 35.1596 35.9999 35.1329C35.8073 35.0886 35.6195 35.026 35.4389 34.9459C35.3021 34.8893 35.1842 34.7949 35.0989 34.6739C35.0256 34.5508 34.9902 34.409 34.9969 34.2659C34.9973 34.103 35.0445 33.9437 35.1329 33.8069C35.2303 33.6646 35.3658 33.5527 35.5239 33.4839C35.6776 33.4357 35.8394 33.4184 35.9999 33.4329C36.3416 33.4159 36.6766 33.5316 36.9349 33.7559C36.9421 33.7838 36.9421 33.813 36.9349 33.8409C36.9443 33.88 36.9443 33.9208 36.9349 33.9599C36.9495 34.0098 36.9495 34.0629 36.9349 34.1129C36.9161 34.1208 36.8958 34.1249 36.8754 34.1249C36.855 34.1249 36.8347 34.1208 36.8159 34.1129C36.7177 34.0354 36.6089 33.9725 36.4929 33.9259C36.3691 33.9053 36.2427 33.9053 36.1189 33.9259C35.9685 33.9219 35.8203 33.9634 35.6939 34.0449C35.6424 34.0818 35.6002 34.1303 35.5707 34.1863C35.5412 34.2424 35.5252 34.3046 35.5239 34.3679C35.5219 34.4207 35.5353 34.4729 35.5624 34.5182C35.5896 34.5634 35.6294 34.5998 35.6769 34.6229C35.8236 34.7121 35.9847 34.7754 36.1529 34.8099C36.3508 34.8469 36.5445 34.9038 36.7309 34.9799C36.8593 35.0426 36.9703 35.136 37.0539 35.2519C37.1385 35.3641 37.1807 35.5026 37.1729 35.6429C37.1832 35.8072 37.135 35.9698 37.0369 36.1019C36.9452 36.2387 36.8151 36.3451 36.6629 36.4079C36.453 36.4932 36.2245 36.5225 35.9999 36.4929C35.8082 36.4797 35.6194 36.4396 35.4389 36.3739ZM40.233 34.3679H40.352C40.3789 34.3567 40.4078 34.3509 40.437 34.3509C40.4662 34.3509 40.495 34.3567 40.522 34.3679C40.5418 34.417 40.5418 34.4718 40.522 34.5209C40.5314 34.5542 40.5314 34.5896 40.522 34.6229L39.859 36.2379C39.8516 36.264 39.8386 36.2881 39.821 36.3086C39.8034 36.3292 39.7816 36.3457 39.757 36.3569C39.7132 36.374 39.6647 36.374 39.621 36.3569H39.468C39.4571 36.318 39.4571 36.2769 39.468 36.2379L38.9919 35.0479L38.5329 36.2379C38.5329 36.2379 38.5329 36.3399 38.4309 36.3569C38.3813 36.3738 38.3275 36.3738 38.2779 36.3569C38.2337 36.3712 38.1861 36.3712 38.1419 36.3569C38.1173 36.3457 38.0955 36.3292 38.0779 36.3086C38.0602 36.2881 38.0473 36.264 38.0399 36.2379L37.3939 34.6229V34.5379C37.373 34.4832 37.373 34.4226 37.3939 34.3679C37.4486 34.347 37.5092 34.347 37.5639 34.3679H37.6999C37.7077 34.4072 37.7077 34.4476 37.6999 34.4869L38.1589 35.7619L38.6519 34.4869C38.6702 34.4409 38.6994 34.4001 38.7369 34.3679H39.0089C39.0465 34.4001 39.0756 34.4409 39.0939 34.4869L39.587 35.7619L40.046 34.4869C40.0912 34.4253 40.158 34.3828 40.233 34.3679ZM41.1 33.8749C41.0483 33.8261 41.0178 33.7589 41.015 33.6879C41.0152 33.6113 41.0457 33.5379 41.1 33.4839C41.1287 33.4549 41.1633 33.4324 41.2014 33.4177C41.2395 33.403 41.2802 33.3966 41.321 33.3989C41.3976 33.3989 41.4712 33.4293 41.5254 33.4835C41.5796 33.5377 41.61 33.6112 41.61 33.6879C41.6321 33.7483 41.6321 33.8145 41.61 33.8749C41.5559 33.9291 41.4826 33.9597 41.406 33.9599C41.3523 33.9771 41.2947 33.9783 41.2403 33.9632C41.1859 33.9481 41.1371 33.9174 41.1 33.8749ZM41.1 36.3739C41.0851 36.345 41.0773 36.313 41.0773 36.2804C41.0773 36.2479 41.0851 36.2158 41.1 36.1869V34.5719C41.0878 34.5452 41.0814 34.5162 41.0814 34.4869C41.0814 34.4576 41.0878 34.4286 41.1 34.4019C41.1295 34.3893 41.1614 34.3828 41.1935 34.3828C41.2256 34.3828 41.2574 34.3893 41.287 34.4019C41.3139 34.3907 41.3428 34.3849 41.372 34.3849C41.4012 34.3849 41.4301 34.3907 41.457 34.4019C41.4692 34.4286 41.4756 34.4576 41.4756 34.4869C41.4756 34.5162 41.4692 34.5452 41.457 34.5719V36.1869C41.4719 36.2158 41.4797 36.2479 41.4797 36.2804C41.4797 36.313 41.4719 36.345 41.457 36.3739C41.4301 36.3852 41.4012 36.3909 41.372 36.3909C41.3428 36.3909 41.3139 36.3852 41.287 36.3739C41.2574 36.3866 41.2256 36.3931 41.1935 36.3931C41.1614 36.3931 41.1295 36.3866 41.1 36.3739ZM43.31 36.2379C43.3208 36.262 43.3264 36.2881 43.3264 36.3144C43.3264 36.3408 43.3208 36.3669 43.31 36.3909C43.2379 36.4122 43.1612 36.4122 43.089 36.3909H42.987C42.8915 36.3893 42.7975 36.3676 42.7109 36.3272C42.6244 36.2867 42.5474 36.2286 42.4848 36.1564C42.4223 36.0842 42.3756 35.9997 42.3479 35.9083C42.3202 35.8169 42.3121 35.7207 42.324 35.6259V34.7929H42.12C42.065 34.8123 42.005 34.8123 41.95 34.7929C41.9169 34.7488 41.899 34.6951 41.899 34.6399C41.899 34.5847 41.9169 34.531 41.95 34.4869C42.005 34.4675 42.065 34.4675 42.12 34.4869H42.324V34.1129C42.3114 34.0833 42.3049 34.0515 42.3049 34.0194C42.3049 33.9872 42.3114 33.9554 42.324 33.9259C42.379 33.9064 42.439 33.9064 42.494 33.9259C42.5548 33.9064 42.6202 33.9064 42.681 33.9259C42.6937 33.9554 42.7002 33.9872 42.7002 34.0194C42.7002 34.0515 42.6937 34.0833 42.681 34.1129V34.4869H43.021C43.0764 34.4699 43.1357 34.4699 43.191 34.4869C43.2241 34.531 43.242 34.5847 43.242 34.6399C43.242 34.6951 43.2241 34.7488 43.191 34.7929C43.1358 34.8111 43.0763 34.8111 43.021 34.7929H42.8V35.7449C42.8 35.9659 42.8 36.0679 43.072 36.0849H43.174C43.242 36.0679 43.31 36.1359 43.31 36.2379ZM45.2651 36.2209C45.277 36.2447 45.2833 36.2709 45.2833 36.2974C45.2833 36.324 45.277 36.3502 45.2651 36.3739C45.2382 36.3852 45.2093 36.3909 45.1801 36.3909C45.1509 36.3909 45.122 36.3852 45.0951 36.3739H43.7691C43.7135 36.39 43.6546 36.39 43.5991 36.3739C43.582 36.3186 43.582 36.2593 43.5991 36.2039C43.5781 36.1492 43.5781 36.0887 43.5991 36.0339L44.5001 34.7929H43.446C43.4129 34.7488 43.395 34.6951 43.395 34.6399C43.395 34.5847 43.4129 34.531 43.446 34.4869C43.473 34.4757 43.5019 34.4699 43.531 34.4699C43.5602 34.4699 43.5891 34.4757 43.616 34.4869H44.9081C44.9575 34.4687 45.0117 34.4687 45.0611 34.4869C45.0837 34.5091 45.1017 34.5355 45.1139 34.5647C45.1262 34.5939 45.1325 34.6252 45.1325 34.6569C45.1325 34.6886 45.1262 34.7199 45.1139 34.7491C45.1017 34.7783 45.0837 34.8047 45.0611 34.8269L44.0241 36.0849H44.9591C45.1801 36.0339 45.2651 36.1019 45.2651 36.2209ZM47.2201 35.9149C47.24 35.964 47.24 36.0189 47.2201 36.0679C47.2166 36.1129 47.2003 36.156 47.1733 36.1922C47.1462 36.2283 47.1094 36.2559 47.0671 36.2719L46.7611 36.4079C46.6484 36.4245 46.5338 36.4245 46.4211 36.4079C46.2857 36.4146 46.1505 36.3922 46.0244 36.3424C45.8983 36.2926 45.7843 36.2164 45.6901 36.1189C45.5913 36.0151 45.5147 35.8922 45.465 35.7577C45.4153 35.6233 45.3935 35.4801 45.4011 35.3369C45.4023 35.1493 45.4428 34.9639 45.5201 34.7929C45.6003 34.6371 45.7169 34.5029 45.8601 34.4019C46.0093 34.3132 46.1796 34.2663 46.3531 34.2659C46.5166 34.2621 46.6771 34.3097 46.8121 34.4019C46.9512 34.4753 47.0597 34.5959 47.1181 34.7419C47.1913 34.9077 47.2261 35.0878 47.2201 35.2689C47.2201 35.3879 47.2201 35.4389 47.0841 35.4389H45.8941C45.8965 35.5936 45.9503 35.7432 46.0471 35.8639C46.1562 35.956 46.2955 36.0044 46.4381 35.9999H46.8801C46.9414 35.9833 47.0059 35.9833 47.0671 35.9999C47.0809 35.9718 47.1029 35.9486 47.1303 35.9334C47.1576 35.9182 47.189 35.9117 47.2201 35.9149ZM46.0981 34.7929C46.0038 34.9019 45.9498 35.0399 45.9451 35.1839H46.8461C46.8588 35.0431 46.8161 34.9028 46.7271 34.7929C46.6902 34.748 46.6433 34.7124 46.5902 34.6887C46.5371 34.6651 46.4792 34.6542 46.4211 34.6569C46.3608 34.6564 46.3011 34.6681 46.2456 34.6915C46.19 34.7149 46.1398 34.7494 46.0981 34.7929ZM48.9372 34.3849C48.9554 34.4343 48.9554 34.4885 48.9372 34.5379C48.9484 34.5648 48.9542 34.5937 48.9542 34.6229C48.9542 34.6521 48.9484 34.681 48.9372 34.7079C48.8768 34.73 48.8105 34.73 48.7502 34.7079H48.6312C48.5629 34.709 48.4958 34.7247 48.4342 34.7541C48.3726 34.7834 48.318 34.8256 48.2742 34.8779C48.2006 34.9819 48.1646 35.1078 48.1721 35.2349V36.1019C48.1943 36.1623 48.1943 36.2286 48.1721 36.2889C48.1598 36.3504 48.1253 36.4053 48.0751 36.4429C48.0249 36.4805 47.9626 36.4983 47.9001 36.4929C47.8735 36.5052 47.8445 36.5115 47.8151 36.5115C47.7858 36.5115 47.7568 36.5052 47.7301 36.4929C47.7019 36.471 47.6794 36.4425 47.6646 36.4099C47.6498 36.3773 47.6431 36.3417 47.6451 36.3059V34.6909C47.6444 34.6578 47.6518 34.625 47.6666 34.5954C47.6814 34.5658 47.7032 34.5402 47.7301 34.5209C47.7568 34.5087 47.7858 34.5023 47.8151 34.5023C47.8445 34.5023 47.8735 34.5087 47.9001 34.5209C47.9271 34.5097 47.956 34.5039 47.9851 34.5039C48.0143 34.5039 48.0432 34.5097 48.0701 34.5209C48.0814 34.5478 48.0871 34.5767 48.0871 34.6059C48.0871 34.6351 48.0814 34.664 48.0701 34.6909V34.7929C48.1152 34.6728 48.199 34.5712 48.3082 34.5039C48.4038 34.4372 48.5151 34.3962 48.6312 34.3849C48.6312 34.3849 48.9032 34.3339 48.9372 34.3849Z" fill="#1D1D1B"/>
</g>
</g>
</svg>
