<svg width="32" height="23" viewBox="0 0 32 23" fill="none" xmlns="http://www.w3.org/2000/svg">
<g clip-path="url(#clip0_332_503004)">
<path d="M31 6.89648C31.552 6.89648 32 7.34448 32 7.89648V19.8965C32 21.5525 30.656 22.8965 29 22.8965H7C6.73478 22.8965 6.48043 22.7911 6.29289 22.6036C6.10536 22.4161 6 22.1617 6 21.8965C6 21.6313 6.10536 21.3769 6.29289 21.1894C6.48043 21.0018 6.73478 20.8965 7 20.8965H29C29.2652 20.8965 29.5196 20.7911 29.7071 20.6036C29.8946 20.4161 30 20.1617 30 19.8965V7.89648C30 7.34448 30.448 6.89648 31 6.89648ZM27 0.896484C27.552 0.896484 28 1.34448 28 1.89648V17.8965C28 18.1617 27.8946 18.4161 27.7071 18.6036C27.5196 18.7911 27.2652 18.8965 27 18.8965H1C0.734784 18.8965 0.48043 18.7911 0.292893 18.6036C0.105357 18.4161 0 18.1617 0 17.8965L0 1.89648C0 1.34448 0.448 0.896484 1 0.896484H27ZM26 2.89648H2V16.8965H26V2.89648ZM22.4987 11.8965L22.664 11.9045C23.0529 11.9449 23.4107 12.1354 23.6613 12.4356C23.9119 12.7357 24.0356 13.1218 24.0059 13.5117C23.9762 13.9015 23.7956 14.2645 23.5025 14.5233C23.2094 14.782 22.8269 14.9163 22.4363 14.8974C22.0458 14.8785 21.678 14.7079 21.4112 14.4221C21.1445 14.1362 20.9998 13.7575 21.0079 13.3666C21.016 12.9757 21.1763 12.6033 21.4547 12.3288C21.7331 12.0542 22.1077 11.8991 22.4987 11.8965ZM14 4.89648C15.3261 4.89648 16.5979 5.42327 17.5355 6.36095C18.4732 7.29863 19 8.5704 19 9.89648C19 11.2226 18.4732 12.4943 17.5355 13.432C16.5979 14.3697 15.3261 14.8965 14 14.8965C12.6739 14.8965 11.4021 14.3697 10.4645 13.432C9.52678 12.4943 9 11.2226 9 9.89648C9 8.5704 9.52678 7.29863 10.4645 6.36095C11.4021 5.42327 12.6739 4.89648 14 4.89648ZM14 6.89648C13.2044 6.89648 12.4413 7.21256 11.8787 7.77516C11.3161 8.33777 11 9.10083 11 9.89648C11 10.6921 11.3161 11.4552 11.8787 12.0178C12.4413 12.5804 13.2044 12.8965 14 12.8965C14.7956 12.8965 15.5587 12.5804 16.1213 12.0178C16.6839 11.4552 17 10.6921 17 9.89648C17 9.10083 16.6839 8.33777 16.1213 7.77516C15.5587 7.21256 14.7956 6.89648 14 6.89648ZM5.49867 4.89648L5.664 4.90448C6.05292 4.94488 6.41073 5.13542 6.66133 5.43556C6.91193 5.73571 7.03555 6.12178 7.00589 6.51166C6.97623 6.90155 6.79564 7.26448 6.50251 7.52326C6.20939 7.78204 5.82688 7.91626 5.43632 7.89736C5.04577 7.87846 4.678 7.70794 4.41123 7.42207C4.14447 7.1362 3.99975 6.75752 4.00787 6.3666C4.016 5.97567 4.17631 5.60334 4.45472 5.32879C4.73313 5.05424 5.10767 4.89915 5.49867 4.89648Z" fill="#757575"/>
</g>
<defs>
<clipPath id="clip0_332_503004">
<rect width="32" height="22.08" fill="white" transform="translate(0 0.830078)"/>
</clipPath>
</defs>
</svg>
