<svg width="19" height="20" viewBox="0 0 19 20" fill="none" xmlns="http://www.w3.org/2000/svg">
<path d="M15.3281 9.50195H14.332V18.5059H4.33203V9.50195H1.32422C1.32422 8.7207 1.43164 7.972 1.64648 7.25586C1.86133 6.53971 2.16406 5.8724 2.55469 5.25391C2.94531 4.63542 3.41081 4.08203 3.95117 3.59375C4.49154 3.10547 5.08724 2.69206 5.73828 2.35352C5.97266 3.18685 6.41862 3.87695 7.07617 4.42383C7.73372 4.9707 8.48568 5.24414 9.33203 5.24414C10.1784 5.24414 10.9303 4.9707 11.5879 4.42383C12.2454 3.87695 12.6914 3.18685 12.9258 2.35352C13.5768 2.69206 14.1725 3.10547 14.7129 3.59375C15.2533 4.08203 15.7188 4.63542 16.1094 5.25391C16.5 5.8724 16.8027 6.53971 17.0176 7.25586C17.2324 7.972 17.3398 8.7207 17.3398 9.50195H15.3281ZM11.9883 1.96289C11.8451 2.61393 11.526 3.15755 11.0312 3.59375C10.5365 4.02995 9.97005 4.24805 9.33203 4.24805C8.69401 4.24805 8.1276 4.02995 7.63281 3.59375C7.13802 3.15755 6.81901 2.61393 6.67578 1.96289C7.09245 1.81966 7.52214 1.70573 7.96484 1.62109C8.40755 1.53646 8.86328 1.49414 9.33203 1.49414C9.80078 1.49414 10.2565 1.53646 10.6992 1.62109C11.1419 1.70573 11.5716 1.81966 11.9883 1.96289ZM13.082 1.31836C13.082 1.30534 13.082 1.29557 13.082 1.28906C13.082 1.28255 13.082 1.27279 13.082 1.25977H12.9258C12.3789 1.01237 11.8027 0.823568 11.1973 0.693359C10.5918 0.56315 9.97005 0.498047 9.33203 0.498047C8.69401 0.498047 8.07227 0.56315 7.4668 0.693359C6.86133 0.823568 6.28516 1.01237 5.73828 1.25977H5.58203C5.58203 1.27279 5.58203 1.28255 5.58203 1.28906C5.58203 1.29557 5.58203 1.30534 5.58203 1.31836C4.8138 1.68294 4.10742 2.14193 3.46289 2.69531C2.81836 3.2487 2.26497 3.87695 1.80273 4.58008C1.34049 5.2832 0.979167 6.05143 0.71875 6.88477C0.458333 7.7181 0.328125 8.5905 0.328125 9.50195V10.498H3.33594V19.502H15.3281V10.498H18.3359V9.50195C18.3359 8.5905 18.2057 7.7181 17.9453 6.88477C17.6849 6.05143 17.3236 5.2832 16.8613 4.58008C16.3991 3.87695 15.8457 3.2487 15.2012 2.69531C14.5566 2.14193 13.8503 1.68294 13.082 1.31836Z" fill="#757575"/>
</svg>
