<svg width="18" height="19" viewBox="0 0 18 19" fill="none" xmlns="http://www.w3.org/2000/svg">
<path d="M9 0.75C11.3206 0.75 13.5462 1.67187 15.1872 3.31282C16.8281 4.95376 17.75 7.17936 17.75 9.5C17.75 11.8206 16.8281 14.0462 15.1872 15.6872C13.5462 17.3281 11.3206 18.25 9 18.25C6.67936 18.25 4.45376 17.3281 2.81282 15.6872C1.17187 14.0462 0.25 11.8206 0.25 9.5C0.25 7.17936 1.17187 4.95376 2.81282 3.31282C4.45376 1.67187 6.67936 0.75 9 0.75ZM9 1.983C8.01285 1.983 7.03537 2.17743 6.12337 2.5552C5.21136 2.93296 4.3827 3.48666 3.68468 4.18468C2.98666 4.8827 2.43296 5.71136 2.0552 6.62337C1.67743 7.53537 1.483 8.51285 1.483 9.5C1.483 10.4871 1.67743 11.4646 2.0552 12.3766C2.43296 13.2886 2.98666 14.1173 3.68468 14.8153C4.3827 15.5133 5.21136 16.067 6.12337 16.4448C7.03537 16.8226 8.01285 17.017 9 17.017C10.9936 17.017 12.9056 16.225 14.3153 14.8153C15.725 13.4056 16.517 11.4936 16.517 9.5C16.517 7.50637 15.725 5.59439 14.3153 4.18468C12.9056 2.77497 10.9936 1.983 9 1.983ZM12.854 5.379C12.9042 5.31544 12.9665 5.2624 13.0372 5.2229C13.1079 5.1834 13.1858 5.15822 13.2662 5.14879C13.3467 5.13937 13.4282 5.14588 13.5062 5.16797C13.5841 5.19005 13.6569 5.22727 13.7205 5.2775C13.7841 5.32773 13.8371 5.38999 13.8766 5.46072C13.9161 5.53145 13.9413 5.60927 13.9507 5.68973C13.9601 5.77019 13.9536 5.85172 13.9315 5.92967C13.9094 6.00761 13.8722 6.08044 13.822 6.144L8.158 13.309C8.02624 13.4821 7.85528 13.6215 7.65918 13.7157C7.46308 13.8099 7.24743 13.8562 7.02995 13.8508C6.81246 13.8454 6.59936 13.7885 6.40814 13.6848C6.21693 13.581 6.05306 13.4334 5.93 13.254L4.158 10.74C4.06385 10.6063 4.02665 10.4407 4.05459 10.2796C4.08254 10.1185 4.17333 9.97515 4.307 9.881C4.44067 9.78685 4.60627 9.74965 4.76736 9.7776C4.92845 9.80554 5.07185 9.89633 5.166 10.03L6.946 12.556C6.9585 12.5747 6.97526 12.5902 6.99491 12.6011C7.01455 12.6121 7.03652 12.6182 7.059 12.619C7.105 12.62 7.149 12.599 7.184 12.553L12.854 5.379Z" fill="#36B400"/>
</svg>
