<svg width="20" height="14" viewBox="0 0 20 14" fill="none" xmlns="http://www.w3.org/2000/svg">
<path d="M0.996094 12.498L3.00781 10.5059H16.9922L19.0039 12.498H0.996094ZM3.00781 2.00977C3.00781 1.86654 3.05664 1.74609 3.1543 1.64844C3.25195 1.55078 3.36589 1.50195 3.49609 1.50195H16.5039C16.6341 1.50195 16.748 1.55078 16.8457 1.64844C16.9434 1.74609 16.9922 1.86654 16.9922 2.00977V9.50977H3.00781V2.00977ZM18.0078 10.5059V2.00977C18.0078 1.5931 17.8613 1.23828 17.5684 0.945312C17.2754 0.652344 16.9206 0.505859 16.5039 0.505859H3.49609C3.07943 0.505859 2.72461 0.652344 2.43164 0.945312C2.13867 1.23828 1.99219 1.5931 1.99219 2.00977V10.5059L0 12.498V13.0059C0 13.1361 0.0488281 13.25 0.146484 13.3477C0.244141 13.4453 0.364583 13.4941 0.507812 13.4941H19.4922C19.6354 13.4941 19.7559 13.4453 19.8535 13.3477C19.9512 13.25 20 13.1361 20 13.0059V12.498L18.0078 10.5059Z" fill="#757575"/>
</svg>
