 <svg width="64" height="65" viewBox="0 0 64 65" fill="none" xmlns="http://www.w3.org/2000/svg">
<path d="M1.16406 34.8383V1.22852H35.9298V34.8383" stroke="#1D1D1B" stroke-width="2.21005" stroke-linecap="round" stroke-linejoin="round"/>
<path opacity="0.4" d="M16.6 18.1607C14.5476 18.6002 12.4305 18.6464 10.3609 18.2967V12.3296C11.5844 11.8098 12.909 11.5716 14.237 11.6325C18.4701 11.6325 18.7421 14.4376 18.7421 15.0326C18.771 15.7155 18.578 16.3894 18.1918 16.9533C17.8056 17.5172 17.2472 17.9408 16.6 18.1607ZM13.9819 22.0538C14.9047 22.1695 15.7887 22.4952 16.566 23.0058C19.2011 24.8928 19.3371 28.2249 19.3371 30.163H24.0462C24.0462 28.2589 23.9272 23.6008 20.1701 20.9148C21.2242 20.348 22.0907 19.487 22.6642 18.4366C23.2377 17.3862 23.4934 16.1917 23.4002 14.9986C23.1452 9.89851 18.7251 7.62046 13.0469 7.90946C8.03182 8.14747 5.63477 9.6095 5.63477 9.7965V30.197H10.3609V21.9178C11.5658 21.8838 12.7715 21.952 13.965 22.1218M31.9004 9.04849C31.9037 9.63425 31.7331 10.2078 31.4101 10.6965C31.0871 11.1852 30.6263 11.567 30.0861 11.7935C29.5459 12.02 28.9506 12.081 28.3757 11.9688C27.8008 11.8566 27.2721 11.5762 26.8567 11.1632C26.4413 10.7502 26.1579 10.2231 26.0424 9.64886C25.9268 9.07459 25.9844 8.47895 26.2078 7.93745C26.4312 7.39594 26.8103 6.93295 27.2971 6.60715C27.7839 6.28136 28.3565 6.10743 28.9423 6.10742C29.7239 6.10741 30.4737 6.41673 31.028 6.9678C31.5822 7.51887 31.8959 8.26691 31.9004 9.04849Z" fill="#1D1D1B"/>
<path d="M43.4609 61.8696V56.7695H48.5611V61.8696H43.4609Z" stroke="#1D1D1B" stroke-width="1.02002" stroke-linecap="round" stroke-linejoin="round"/>
<path d="M38.4298 55.1715C37.9789 55.1715 37.5465 55.3506 37.2276 55.6694C36.9088 55.9882 36.7297 56.4206 36.7297 56.8715V61.9716C36.7297 62.4225 36.9088 62.8549 37.2276 63.1737C37.5465 63.4926 37.9789 63.6717 38.4298 63.6717H43.5299V55.1715H38.4298ZM28.1445 47.6403V44.2402H31.5446V47.6403H28.1445Z" stroke="#1D1D1B" stroke-width="1.02002" stroke-linecap="round" stroke-linejoin="round"/>
<path d="M24.7938 42.6934C24.3429 42.6934 23.9105 42.8725 23.5917 43.1913C23.2729 43.5101 23.0938 43.9425 23.0938 44.3934V47.7935C23.0938 48.2444 23.2729 48.6768 23.5917 48.9956C23.9105 49.3144 24.3429 49.4935 24.7938 49.4935H28.1939V42.6934H24.7938Z" stroke="#1D1D1B" stroke-width="1.02002" stroke-linecap="round" stroke-linejoin="round"/>
<path d="M36.7627 59.352H15.7163C14.0004 59.2654 12.3834 58.5229 11.1995 57.2778C10.0156 56.0327 9.35547 54.3804 9.35547 52.6623C9.35547 50.9442 10.0156 49.2919 11.1995 48.0468C12.3834 46.8017 14.0004 46.0592 15.7163 45.9727H23.2134" stroke="#1D1D1B" stroke-width="2.21005" stroke-linecap="round" stroke-linejoin="round"/>
<path d="M60.3417 38.1033H44.2424C43.6156 38.1033 43.0146 37.8543 42.5714 37.4112C42.1283 36.968 41.8793 36.367 41.8793 35.7402M17.9598 52.9786C17.9598 52.0943 17.6976 51.2299 17.2063 50.4946C16.715 49.7593 16.0167 49.1863 15.1997 48.8479C14.3827 48.5095 13.4837 48.4209 12.6164 48.5934C11.7491 48.7659 10.9524 49.1918 10.3271 49.8171C9.70184 50.4424 9.27601 51.239 9.10349 52.1063C8.93097 52.9737 9.01952 53.8726 9.35792 54.6896C9.69633 55.5066 10.2694 56.2049 11.0047 56.6962C11.7399 57.1875 12.6044 57.4497 13.4887 57.4497C14.0765 57.452 14.6589 57.3378 15.2024 57.114C15.7458 56.8901 16.2396 56.5608 16.6552 56.1452C17.0709 55.7295 17.4001 55.2358 17.624 54.6923C17.8479 54.1488 17.962 53.5664 17.9598 52.9786Z" stroke="#1D1D1B" stroke-width="2.21005" stroke-linecap="round" stroke-linejoin="round"/>
<path d="M45.0259 14.4883C44.1918 14.4883 43.3918 14.8196 42.802 15.4095C42.2122 15.9993 41.8809 16.7992 41.8809 17.6334V35.7388C41.8809 35.112 42.1298 34.511 42.573 34.0678C43.0161 33.6247 43.6172 33.3757 44.2439 33.3757H61.7033C61.8074 33.378 61.9109 33.3594 62.0078 33.3211C62.1046 33.2828 62.1929 33.2256 62.2673 33.1528C62.3417 33.0799 62.4009 32.9929 62.4412 32.8969C62.4816 32.8009 62.5023 32.6978 62.5023 32.5937V15.2703C62.4979 15.0613 62.4117 14.8625 62.2624 14.7163C62.113 14.5701 61.9123 14.4882 61.7033 14.4883H45.0259Z" stroke="#1D1D1B" stroke-width="2.21005" stroke-linecap="round" stroke-linejoin="round"/>
<path d="M59.1016 38.1031L60.9716 33.377" stroke="#1D1D1B" stroke-width="1.02002" stroke-linecap="round" stroke-linejoin="round"/>
<path d="M1.16406 34.8379L3.0341 38.102H34.6888L35.9298 34.8379" stroke="#1D1D1B" stroke-width="2.21005" stroke-linecap="round" stroke-linejoin="round"/>
<path d="M32.6667 34.8379H4.12305" stroke="#1D1D1B" stroke-width="1.02002" stroke-linecap="round" stroke-linejoin="round"/>
</svg>
