<svg width="16" height="20" viewBox="0 0 16 20" fill="none" xmlns="http://www.w3.org/2000/svg">
<path d="M6.16406 13.5059V16.3965C6.16406 16.9694 5.95573 17.4642 5.53906 17.8809C5.1224 18.2975 4.6276 18.5059 4.05469 18.5059H3.27344C2.6875 18.5059 2.18945 18.2975 1.7793 17.8809C1.36914 17.4642 1.16406 16.9694 1.16406 16.3965V13.5059H6.16406ZM4.15234 1.49414H6.16406V0.498047H1.16406V1.49414H3.15625V12.5098H0.167969V16.3965C0.167969 17.2428 0.470703 17.972 1.07617 18.584C1.68164 19.196 2.41406 19.502 3.27344 19.502H4.05469C4.90104 19.502 5.63021 19.196 6.24219 18.584C6.85417 17.972 7.16016 17.2428 7.16016 16.3965V12.5098H4.15234V1.49414ZM14.1523 0.498047V4.50195C14.1523 4.77539 14.0547 5.00977 13.8594 5.20508C13.6641 5.40039 13.4297 5.49805 13.1562 5.49805H12.1602V0.498047H11.1641V5.49805H10.168C9.88151 5.49805 9.64062 5.40039 9.44531 5.20508C9.25 5.00977 9.15234 4.77539 9.15234 4.50195V0.498047H8.15625V4.50195C8.15625 5.04883 8.35156 5.51758 8.74219 5.9082C9.13281 6.29883 9.60807 6.49414 10.168 6.49414H11.1641V19.502H12.1602V6.49414H13.1562C13.7031 6.49414 14.1751 6.29883 14.5723 5.9082C14.9694 5.51758 15.168 5.04883 15.168 4.50195V0.498047H14.1523Z" fill="#757575"/>
</svg>
