<svg width="66" height="73" viewBox="0 0 66 73" fill="none" xmlns="http://www.w3.org/2000/svg">
<path d="M33.9954 48.4459C46.004 48.4459 55.7389 38.7111 55.7389 26.7025C55.7389 14.6939 46.004 4.95898 33.9954 4.95898C21.9868 4.95898 12.252 14.6939 12.252 26.7025C12.252 38.7111 21.9868 48.4459 33.9954 48.4459Z" stroke="#1D1D1B" stroke-width="2.48206" stroke-linecap="round" stroke-linejoin="round"/>
<path d="M47.7324 43.5488L61.6387 57.4551" stroke="#1D1D1B" stroke-width="2.48206" stroke-linecap="round" stroke-linejoin="round"/>
<mask id="mask0_293_14298" style="mask-type:luminance" maskUnits="userSpaceOnUse" x="0" y="0" width="66" height="73">
<path d="M57.6094 14.445C60.095 19.348 60.9456 24.9181 60.0366 30.3395C59.1276 35.7609 56.5067 40.7489 52.5578 44.573C48.6088 48.3972 43.5393 50.8565 38.0915 51.5911C32.6437 52.3256 27.1038 51.2966 22.2831 48.6549C17.4624 46.0131 13.6141 41.8974 11.3017 36.9103C8.98938 31.9232 8.33442 26.3268 9.43278 20.9405C10.5311 15.5543 13.3251 10.6612 17.4056 6.97771C21.486 3.29424 26.6386 1.01394 32.1088 0.470703L12.2013 3.03776L0.301083 6.89685L0.0800781 57.133L33.0608 72.4333L54.7023 61.9441L65.4805 18.7631L57.6094 14.445Z" fill="white"/>
</mask>
<g mask="url(#mask0_293_14298)">
<path d="M4.65234 18.9839L18.6607 11.8438L46.7623 25.9371L32.754 33.0772" stroke="#706F6F" stroke-width="1.85304" stroke-linecap="round" stroke-linejoin="round"/>
<path d="M32.7537 33.0769L8.03516 20.6836" stroke="#706F6F" stroke-width="0.969022" stroke-linecap="round" stroke-linejoin="round"/>
<path d="M46.7623 59.0033L32.754 66.1264L4.65234 52.0501V18.9844M46.7453 25.9375V58.9863" stroke="#706F6F" stroke-width="1.85304" stroke-linecap="round" stroke-linejoin="round"/>
<path d="M32.7539 35.9336V61.9442" stroke="#706F6F" stroke-width="0.850019" stroke-linecap="round" stroke-linejoin="round"/>
<path opacity="0.3" d="M29.3871 39.979C29.3871 41.5431 28.333 42.2571 27.007 41.5941C26.3068 41.1773 25.7222 40.5917 25.3064 39.8909C24.8907 39.1901 24.6571 38.3963 24.627 37.582C24.627 36.0349 25.698 35.3209 27.007 35.9839C27.708 36.3956 28.2937 36.9777 28.7097 37.6761C29.1258 38.3744 29.3588 39.1666 29.3871 39.979Z" fill="#1D1D1B"/>
</g>
<path d="M43.5156 24.7126L51.3018 20.8535" stroke="#1D1D1B" stroke-width="2.51606" stroke-linecap="round" stroke-linejoin="round"/>
<path d="M33.4512 41.7637V44.6877" stroke="#1D1D1B" stroke-width="0.850019" stroke-linecap="round" stroke-linejoin="round"/>
<path d="M17.0117 21.5842L25.4099 25.8003M25.4099 25.8003L26.0729 28.9794L24.3559 32.8555L28.419 33.3485L33.4511 39.4686L37.5482 34.1135L39.3502 29.8634L42.6313 27.7894L44.1273 24.4063L38.9422 23.7093L35.2871 21.3122L30.425 17.4531L30.918 24.4573L25.4099 25.8003Z" stroke="#1D1D1B" stroke-width="2.51606" stroke-linecap="round" stroke-linejoin="round"/>
<path d="M30.4251 26.5997L28.4191 28.6057M34.8622 23.7436L27.7051 30.9008M36.0183 24.2196L29.0311 31.2068M36.9703 24.8656L30.1531 31.6828M38.0923 25.5627L31.0542 32.5838M39.8773 25.7497L31.7512 33.8758M36.6473 30.9008L32.6522 34.9129M34.9812 34.3518L33.3492 35.9839M41.0844 26.2767L40.2344 27.1437M33.9272 22.8086L33.0602 23.6756M28.4191 26.9057L27.9771 27.3307" stroke="#878787" stroke-width="0.391009" stroke-linecap="round" stroke-linejoin="round"/>
</svg>
