<svg width="24" height="25" viewBox="0 0 24 25" fill="none" xmlns="http://www.w3.org/2000/svg">
<path fill-rule="evenodd" clip-rule="evenodd" d="M0.75 14.75C0.551088 14.75 0.360322 14.671 0.21967 14.5303C0.0790176 14.3897 0 14.1989 0 14L0 6.5C0 5.90326 0.237053 5.33097 0.65901 4.90901C1.08097 4.48705 1.65326 4.25 2.25 4.25H14.25C15.23 4.25 16.063 4.876 16.372 5.75H18.75C21.65 5.75 24 8.1 24 11V17C24 17.5967 23.7629 18.169 23.341 18.591C22.919 19.0129 22.3467 19.25 21.75 19.25H21C20.8011 19.25 20.6103 19.171 20.4697 19.0303C20.329 18.8897 20.25 18.6989 20.25 18.5C20.25 18.3011 20.329 18.1103 20.4697 17.9697C20.6103 17.829 20.8011 17.75 21 17.75H21.75C21.9489 17.75 22.1397 17.671 22.2803 17.5303C22.421 17.3897 22.5 17.1989 22.5 17V13.25H20.25C19.6533 13.25 19.081 13.0129 18.659 12.591C18.2371 12.169 18 11.5967 18 11V7.25H16.5V12.5C16.5 12.6989 16.421 12.8897 16.2803 13.0303C16.1397 13.171 15.9489 13.25 15.75 13.25C15.5511 13.25 15.3603 13.171 15.2197 13.0303C15.079 12.8897 15 12.6989 15 12.5V6.5C15 6.30109 14.921 6.11032 14.7803 5.96967C14.6397 5.82902 14.4489 5.75 14.25 5.75H2.25C2.05109 5.75 1.86032 5.82902 1.71967 5.96967C1.57902 6.11032 1.5 6.30109 1.5 6.5V14C1.5 14.1989 1.42098 14.3897 1.28033 14.5303C1.13968 14.671 0.948912 14.75 0.75 14.75ZM22.5 11C22.5 10.1356 22.2014 9.29766 21.6548 8.62801C21.1081 7.95836 20.3469 7.49807 19.5 7.325V11C19.5 11.414 19.836 11.75 20.25 11.75H22.5V11ZM16.5 20.75C17.2956 20.75 18.0587 20.4339 18.6213 19.8713C19.1839 19.3087 19.5 18.5456 19.5 17.75C19.5 16.9544 19.1839 16.1913 18.6213 15.6287C18.0587 15.0661 17.2956 14.75 16.5 14.75C15.7044 14.75 14.9413 15.0661 14.3787 15.6287C13.8161 16.1913 13.5 16.9544 13.5 17.75C13.5 18.5456 13.8161 19.3087 14.3787 19.8713C14.9413 20.4339 15.7044 20.75 16.5 20.75ZM16.5 19.25C16.1022 19.25 15.7206 19.092 15.4393 18.8107C15.158 18.5294 15 18.1478 15 17.75C15 17.3522 15.158 16.9706 15.4393 16.6893C15.7206 16.408 16.1022 16.25 16.5 16.25C16.8978 16.25 17.2794 16.408 17.5607 16.6893C17.842 16.9706 18 17.3522 18 17.75C18 18.1478 17.842 18.5294 17.5607 18.8107C17.2794 19.092 16.8978 19.25 16.5 19.25ZM7.5 17.75C7.5 18.5456 7.18393 19.3087 6.62132 19.8713C6.05871 20.4339 5.29565 20.75 4.5 20.75C3.70435 20.75 2.94129 20.4339 2.37868 19.8713C1.81607 19.3087 1.5 18.5456 1.5 17.75C1.5 16.9544 1.81607 16.1913 2.37868 15.6287C2.94129 15.0661 3.70435 14.75 4.5 14.75C5.29565 14.75 6.05871 15.0661 6.62132 15.6287C7.18393 16.1913 7.5 16.9544 7.5 17.75ZM3 17.75C3 18.1478 3.15804 18.5294 3.43934 18.8107C3.72064 19.092 4.10218 19.25 4.5 19.25C4.89782 19.25 5.27936 19.092 5.56066 18.8107C5.84196 18.5294 6 18.1478 6 17.75C6 17.3522 5.84196 16.9706 5.56066 16.6893C5.27936 16.408 4.89782 16.25 4.5 16.25C4.10218 16.25 3.72064 16.408 3.43934 16.6893C3.15804 16.9706 3 17.3522 3 17.75ZM12.75 18.5C12.75 18.6989 12.671 18.8897 12.5303 19.0303C12.3897 19.171 12.1989 19.25 12 19.25H9C8.80109 19.25 8.61032 19.171 8.46967 19.0303C8.32902 18.8897 8.25 18.6989 8.25 18.5C8.25 18.3011 8.32902 18.1103 8.46967 17.9697C8.61032 17.829 8.80109 17.75 9 17.75H12C12.1989 17.75 12.3897 17.829 12.5303 17.9697C12.671 18.1103 12.75 18.3011 12.75 18.5Z" fill="#0E9493"/>
</svg>
