<svg width="65" height="73" viewBox="0 0 65 73" fill="none" xmlns="http://www.w3.org/2000/svg">
<mask id="mask0_293_14321" style="mask-type:luminance" maskUnits="userSpaceOnUse" x="0" y="0" width="61" height="73">
<path d="M57.9064 14.2854C60.3642 19.1265 61.2071 24.6275 60.3116 29.9824C59.4161 35.3374 56.8293 40.2649 52.9302 44.043C49.0311 47.8211 44.0246 50.2514 38.6441 50.9777C33.2636 51.704 27.7919 50.6882 23.0305 48.0791C18.2692 45.47 14.4686 41.4048 12.1853 36.479C9.902 31.5531 9.25614 26.0255 10.3423 20.706C11.4285 15.3864 14.1896 10.5545 18.2212 6.91804C22.2527 3.28158 27.3429 1.03172 32.7459 0.498047L7.02429 19.9805L0.785156 24.3666L0.972161 59.8124L19.6726 72.2396L50.7153 55.4093L49.6272 21.8335L57.9064 14.2854Z" fill="white"/>
</mask>
<g mask="url(#mask0_293_14321)">
<path d="M6.73438 27.171L34.615 13.1797L48.5213 20.2688V53.0626L20.6407 67.0539L6.73438 59.9647V27.154" stroke="#706F6F" stroke-width="1.95504" stroke-linecap="round" stroke-linejoin="round"/>
<path d="M20.6406 37.0137V62.8882" stroke="#706F6F" stroke-width="0.90102" stroke-linecap="round" stroke-linejoin="round"/>
<path opacity="0.3" d="M45.2242 30.2651C45.1943 31.0774 44.9626 31.8695 44.5501 32.57C44.1375 33.2704 43.5571 33.8571 42.8611 34.2771C41.5521 34.9572 40.498 34.2771 40.498 32.7131C40.5309 31.9014 40.7638 31.1105 41.1761 30.4105C41.5883 29.7106 42.1672 29.1233 42.8611 28.701C44.1701 28.038 45.2242 28.701 45.2242 30.2651Z" fill="#1D1D1B"/>
<path d="M6.92188 27.4941L20.8112 34.5663" stroke="#706F6F" stroke-width="1.95504" stroke-linecap="round" stroke-linejoin="round"/>
</g>
<path d="M35.6868 47.7585C47.6954 47.7585 57.4303 38.0236 57.4303 26.015C57.4303 14.0064 47.6954 4.27148 35.6868 4.27148C23.6782 4.27148 13.9434 14.0064 13.9434 26.015C13.9434 38.0236 23.6782 47.7585 35.6868 47.7585Z" stroke="#1D1D1B" stroke-width="2.48206" stroke-linecap="round" stroke-linejoin="round"/>
<path d="M49.4238 42.8633L63.3301 56.7696" stroke="#1D1D1B" stroke-width="2.48206" stroke-linecap="round" stroke-linejoin="round"/>
<mask id="mask1_293_14321" style="mask-type:luminance" maskUnits="userSpaceOnUse" x="18" y="8" width="36" height="36">
<path d="M35.6863 43.4078C45.2913 43.4078 53.0777 35.6214 53.0777 26.0164C53.0777 16.4114 45.2913 8.625 35.6863 8.625C26.0813 8.625 18.2949 16.4114 18.2949 26.0164C18.2949 35.6214 26.0813 43.4078 35.6863 43.4078Z" fill="white"/>
</mask>
<g mask="url(#mask1_293_14321)">
<path d="M17.666 23.9942L19.8931 29.9954M20.3181 26.4253L24.9422 24.7082M48.7257 12.434L50.9528 18.4351M25.6052 21.0362L27.8322 27.0373M28.2573 23.4672L32.8814 21.7502M33.3064 18.1631L35.5504 24.1812M35.9754 20.5941L40.5995 18.8771M41.0245 15.307L43.2516 21.3082M43.6766 17.7211L48.3007 16.004M21.2021 33.4974L23.4291 39.4986M23.8542 35.9285L28.4783 34.1945M52.2618 21.9202L54.4888 27.9383M29.1413 30.5394L31.3683 36.5405M31.7933 32.9704L36.4174 31.2364M36.8424 27.6663L39.0865 33.6674M39.5115 30.0974L44.1356 28.3803M35.4994 42.9156L40.1235 41.1986M40.5485 37.6115L42.7926 43.6297M43.2176 40.0426L47.8417 38.3255M24.6362 13.709L29.2603 11.992M29.6853 8.42188L31.9123 14.423M32.3373 10.8359L36.9614 9.11889M44.5606 24.7932L46.7877 30.7944M47.2127 27.2243L51.8368 25.5073M23.3271 27.2923L25.5712 33.2934M25.9962 29.7234L30.6203 27.9893M18.414 32.5454L23.0381 30.8114M31.2833 24.3342L33.5104 30.3354M33.9354 26.7653L38.5595 25.0312M38.9845 21.4612L41.2285 27.4623M41.6365 23.8922L46.2607 22.1752M46.6857 18.5881L48.9297 24.6062M49.3547 21.0192L53.9788 19.3021M19.7911 17.7891L22.0351 23.8072M22.4601 20.2201L27.0842 18.5031M27.7472 14.831L29.9743 20.8492M30.3993 17.2621L35.0234 15.545M35.4484 11.975L37.6925 17.9761M38.1175 14.389L42.7246 12.672M43.1496 9.10189L45.3936 15.103M26.9822 37.1015L29.2263 43.1026M29.6513 39.5326L34.2754 37.7985M34.9384 34.1435L37.1654 40.1446M37.5905 36.5745L42.2146 34.8405M42.6396 31.2704L44.8666 37.2715M45.2916 33.7014L49.9157 31.9844M50.3407 28.3973L52.5848 34.4155" stroke="#706F6F" stroke-width="0.850019" stroke-linecap="round" stroke-linejoin="round"/>
</g>
</svg>
