<svg width="73" height="53" viewBox="0 0 73 53" fill="none" xmlns="http://www.w3.org/2000/svg">
<path d="M4.26172 1.32812H36.7494V33.8158H4.26172V1.32812Z" stroke="#1D1D1B" stroke-width="2.21005" stroke-linecap="round" stroke-linejoin="round"/>
<path opacity="0.4" d="M18.7462 18.2263C16.8276 18.6317 14.8504 18.6778 12.915 18.3623V12.7862C14.0501 12.3183 15.2768 12.1149 16.5021 12.1912C20.4632 12.1912 20.7182 14.8263 20.7182 15.3873C20.7421 16.021 20.5617 16.6457 20.2036 17.1691C19.8454 17.6926 19.3285 18.087 18.7292 18.2943M16.2811 21.9324C17.1454 22.0389 17.9724 22.3476 18.6952 22.8334C21.1602 24.5335 21.2792 27.7125 21.2792 29.5146H25.6993C25.6993 27.8145 25.5803 23.3774 22.0612 20.8784C23.0414 20.3403 23.8461 19.5318 24.3796 18.5492C24.9131 17.5666 25.1529 16.4513 25.0703 15.3363C24.8323 10.5252 20.7012 8.45111 15.3801 8.70612C10.705 8.92712 8.46094 10.4062 8.46094 10.4912V29.4126H12.881V21.6774C14.0177 21.6412 15.1553 21.7037 16.2811 21.8644M32.9245 9.70914C32.9277 10.2557 32.7693 10.7911 32.469 11.2478C32.1688 11.7046 31.7402 12.0623 31.2371 12.2761C30.734 12.4898 30.179 12.55 29.6418 12.4491C29.1046 12.3482 28.6093 12.0906 28.2181 11.7089C27.8269 11.3271 27.5573 10.8382 27.4433 10.3036C27.3293 9.76903 27.376 9.21268 27.5774 8.70455C27.7788 8.19642 28.126 7.7592 28.5753 7.44791C29.0246 7.13662 29.5559 6.96515 30.1024 6.95508C30.8315 6.95954 31.5294 7.25113 32.0449 7.76665C32.5604 8.28217 32.852 8.98009 32.8565 9.70914" fill="#1D1D1B"/>
<path d="M64.4929 12.1915H64.952C66.5991 12.3944 68.1151 13.1926 69.2145 14.4357C70.314 15.6789 70.9208 17.2811 70.9208 18.9407C70.9208 20.6002 70.314 22.2025 69.2145 23.4456C68.1151 24.6888 66.5991 25.487 64.952 25.6898H64.4929M60.9059 33.816H48.2916C47.3357 33.816 46.419 33.4363 45.7431 32.7604C45.0672 32.0845 44.6875 31.1678 44.6875 30.2119V10.4915C44.6875 10.0136 44.8774 9.55521 45.2153 9.21726C45.5533 8.87931 46.0116 8.68945 46.4895 8.68945H62.7079C63.1694 8.71143 63.6044 8.91148 63.9214 9.24754C64.2385 9.58361 64.4129 10.0295 64.4079 10.4915V30.2119C64.4127 31.1517 64.0484 32.0557 63.3935 32.7297C62.7386 33.4037 61.8454 33.7938 60.9059 33.816Z" stroke="#1D1D1B" stroke-width="2.21005" stroke-linecap="round" stroke-linejoin="round"/>
<path d="M47.1016 15.353C49.2946 14.214 50.5016 15.812 52.3207 15.812C54.1397 15.812 55.5508 14.418 57.3018 14.418C59.0528 14.418 59.9708 15.642 62.2829 15.642" stroke="#878787" stroke-width="0.867019" stroke-linecap="round" stroke-linejoin="round"/>
<path d="M1.37109 40.7012H67.7066V51.0884H1.37109V40.7012Z" stroke="#1D1D1B" stroke-width="2.21005" stroke-linecap="round" stroke-linejoin="round"/>
<path d="M12.5742 46.3963V40.7012M23.8625 46.3963V40.7012M34.4707 46.3963V40.7012" stroke="#1D1D1B" stroke-width="0.867019" stroke-linecap="round" stroke-linejoin="round"/>
<path d="M6.82812 44.5943V40.7012M18.1844 44.5943V40.7012M29.4556 44.5943V40.7012M40.0639 44.5943V40.7012" stroke="#1D1D1B" stroke-width="0.935021" stroke-linecap="round" stroke-linejoin="round"/>
<path d="M45.8105 46.3963V40.7012M57.0988 46.3963V40.7012" stroke="#1D1D1B" stroke-width="0.867019" stroke-linecap="round" stroke-linejoin="round"/>
<path d="M40.0645 44.5943V40.7012M51.4037 44.5943V40.7012M62.692 44.5943V40.7012" stroke="#1D1D1B" stroke-width="0.935021" stroke-linecap="round" stroke-linejoin="round"/>
</svg>
