<svg width="54" height="68" viewBox="0 0 54 68" fill="none" xmlns="http://www.w3.org/2000/svg">
<path d="M52.0933 9.75605L18.6026 26.5524L1.9082 18.0352M52.0933 9.75605L35.3989 1.25586L1.9082 18.0352M52.0933 9.75605V49.1459M1.9082 18.0352V57.4421M1.9082 57.4251L18.6026 65.9423L52.0933 49.1629" stroke="#1D1D1B" stroke-width="2.21005" stroke-linecap="round" stroke-linejoin="round"/>
<path d="M18.6035 29.9531V60.9448" stroke="#1D1D1B" stroke-width="1.02002" stroke-linecap="round" stroke-linejoin="round"/>
<path opacity="0.4" d="M33.5455 39.5916C31.7649 41.0661 29.7395 42.2169 27.5614 42.9917V36.1916C28.6337 35.0532 29.9002 34.1149 31.3015 33.4205C35.3816 31.3125 35.6366 34.3725 35.6366 35.1205C35.6095 35.9687 35.4101 36.8024 35.0506 37.571C34.6911 38.3397 34.1791 39.0271 33.5455 39.5916ZM31.0295 45.3208C31.8148 44.9935 32.6833 44.9221 33.5115 45.1168C36.0446 45.9328 36.1806 49.6559 36.1806 51.8319L40.7197 49.4859C40.7197 47.3438 40.5837 42.1247 36.9796 40.9857C38.9915 38.6854 40.0921 35.7284 40.0737 32.6725C39.8357 26.9604 35.5856 26.6543 30.1114 29.7824C27.3525 31.2096 24.9253 33.2023 22.9883 35.6305V58.6661L27.5444 56.303V46.9188C28.6346 46.3084 29.7715 45.7854 30.9445 45.3548M48.1488 21.7752C48.1127 22.752 47.8324 23.7041 47.3335 24.5445C46.8346 25.385 46.1329 26.087 45.2928 26.5863C43.7287 27.4024 42.4537 26.5863 42.4537 24.7163C42.4928 23.74 42.7724 22.7884 43.2677 21.9462C43.7629 21.1039 44.4586 20.397 45.2928 19.8882C46.8738 19.0892 48.1488 19.8882 48.1488 21.7752Z" fill="#1D1D1B"/>
</svg>
