<svg width="70" height="55" viewBox="0 0 70 55" fill="none" xmlns="http://www.w3.org/2000/svg">
<path opacity="0.4" d="M36.1569 17.3884C37.93 16.058 39.9043 15.0192 42.005 14.3113L47.8021 17.1844C46.978 18.1484 45.9343 18.9005 44.7591 19.3774C43.6141 20.0485 42.3298 20.4467 41.006 20.541C39.6822 20.6354 38.3545 20.4233 37.1259 19.9214C36.0549 19.3774 35.2048 18.5614 36.1909 17.3884M34.9498 14.2433C33.8555 14.6512 32.7124 14.9142 31.5498 15.0253C28.2304 15.2317 24.9199 14.5012 21.9956 12.9173L17.4395 15.1953C21.3319 17.2024 25.7028 18.0965 30.0707 17.7794C29.8837 18.3744 28.6597 20.3124 32.6888 22.1825C37.8909 24.5455 44.2831 23.4745 49.5022 20.6014C54.0923 18.0684 54.9593 16.1813 54.8063 16.1133L40.577 8.97317L35.2218 6.28711L30.6317 8.58216L38.5709 12.5943C37.3891 13.2365 36.1684 13.8043 34.9158 14.2943M30.2917 29.1016C28.7277 28.3196 28.7277 27.0446 30.2917 26.2626C31.1892 25.8678 32.1589 25.6639 33.1393 25.6639C34.1197 25.6639 35.0894 25.8678 35.9869 26.2626C37.5679 27.0446 37.5679 28.3196 35.9869 29.1016C35.0894 29.4964 34.1197 29.7002 33.1393 29.7002C32.1589 29.7002 31.1892 29.4964 30.2917 29.1016Z" fill="#1D1D1B"/>
<path d="M1.50977 18.629L35.0005 35.4254L68.4743 18.629M1.50977 18.629L35.0005 1.84961L68.4743 18.629M1.50977 18.629V37.0744L35.0005 53.8708L68.4743 37.0744V18.629" stroke="#1D1D1B" stroke-width="2.21005" stroke-linecap="round" stroke-linejoin="round"/>
<path d="M35 38.8262V48.8734" stroke="#1D1D1B" stroke-width="1.02002" stroke-linecap="round" stroke-linejoin="round"/>
</svg>
