<svg width="53" height="68" viewBox="0 0 53 68" fill="none" xmlns="http://www.w3.org/2000/svg">
<path d="M1.19922 9.75605L34.673 26.5524L51.3673 18.0352M1.19922 9.75605L17.8766 1.25586L51.3673 18.0352M1.19922 9.75605V49.1459M51.3673 18.0352V57.4421M51.3673 57.4251L34.673 65.9423L1.19922 49.1629" stroke="#1D1D1B" stroke-width="2.21005" stroke-linecap="round" stroke-linejoin="round"/>
<path d="M34.6738 29.9531V60.9448" stroke="#1D1D1B" stroke-width="1.02002" stroke-linecap="round" stroke-linejoin="round"/>
<path opacity="0.4" d="M16.0918 37.7383C14.5108 37.7383 10.9917 35.5453 10.0907 34.8993V28.0991C11.404 28.1246 12.6877 28.4939 13.8138 29.1701C15.031 29.6711 16.0829 30.5042 16.8495 31.5744C17.616 32.6445 18.0663 33.9085 18.1489 35.2223C18.1489 36.4803 17.7578 37.7553 16.1088 37.7043M13.5758 40.8664C14.5303 41.5012 15.3744 42.288 16.0748 43.1955C17.9695 45.9647 18.9013 49.2799 18.7269 52.6307L23.249 54.8917C23.3746 50.4833 22.0684 46.153 19.5259 42.5494C20.2059 42.3114 22.756 42.0224 22.603 37.4493C22.365 31.4822 18.1149 26.8411 12.6577 24.393C7.82963 22.251 5.51758 22.778 5.51758 22.965V46.0005L10.0737 48.2956V38.9284C11.2554 39.4985 12.3921 40.1577 13.4738 40.9004M30.6781 34.7803C30.6781 36.6333 29.4031 37.5003 27.8391 36.7013C27.0037 36.2065 26.3059 35.5098 25.8098 34.6751C25.3138 33.8404 25.0353 32.8945 25 31.9242C25 30.0712 26.275 29.2211 27.8391 30.0032C28.6714 30.5015 29.3667 31.199 29.8623 32.033C30.3579 32.8669 30.6383 33.811 30.6781 34.7803Z" fill="#1D1D1B"/>
</svg>
