<svg width="24" height="24" viewBox="0 0 24 24" fill="none" xmlns="http://www.w3.org/2000/svg">
<path d="M7.1875 10.625C10.4741 10.625 13.2372 11.9664 13.37 13.9152L13.375 14.0625V19.5625C13.375 21.5907 10.5563 23 7.1875 23C3.81869 23 1 21.5907 1 19.5625V14.0625C1 12.0343 3.81869 10.625 7.1875 10.625ZM12.0012 19.0164C10.8587 19.7896 9.11298 20.25 7.1875 20.25C5.26254 20.25 3.5172 19.7898 2.37471 19.017L2.375 19.5625C2.375 20.5722 4.48065 21.625 7.1875 21.625C9.89435 21.625 12 20.5722 12 19.5625L12.0012 19.0164ZM7.1875 17.5C5.26254 17.5 3.5172 17.0398 2.37471 16.267L2.375 16.8125L2.38076 16.9044C2.50317 17.885 4.56267 18.875 7.1875 18.875C9.89435 18.875 12 17.8222 12 16.8125L12.0012 16.2664C10.8587 17.0396 9.11298 17.5 7.1875 17.5ZM7.1875 12C4.48065 12 2.375 13.0528 2.375 14.0625C2.375 15.0722 4.48065 16.125 7.1875 16.125C9.89435 16.125 12 15.0722 12 14.0625C12 13.0528 9.89435 12 7.1875 12ZM20.9375 1C22.0762 1 23 1.9238 23 3.0625V14.0625C23 15.2012 22.0762 16.125 20.9375 16.125H15.4375C15.0578 16.125 14.75 15.8172 14.75 15.4375C14.75 15.0578 15.0578 14.75 15.4375 14.75H20.9375C21.3168 14.75 21.625 14.4418 21.625 14.0625V3.0625C21.625 2.6832 21.3168 2.375 20.9375 2.375H3.0625C2.6832 2.375 2.375 2.6832 2.375 3.0625V9.94392C2.375 10.3236 2.0672 10.6314 1.6875 10.6314C1.3078 10.6314 1 10.3236 1 9.94392V3.0625C1 1.9238 1.9238 1 3.0625 1H20.9375ZM18.8746 10.9688L18.9873 10.9748C19.504 11.0308 19.9062 11.4685 19.9062 12C19.9062 12.5694 19.4444 13.0312 18.875 13.0312C18.3056 13.0312 17.8438 12.5694 17.8438 12C17.8438 11.4307 18.3053 10.969 18.8746 10.9688ZM12 5.125C13.8986 5.125 15.4375 6.66389 15.4375 8.5625C15.4375 9.55179 15.011 10.4936 14.2673 11.1456C13.9818 11.3959 13.5474 11.3674 13.2971 11.0819C13.0468 10.7964 13.0753 10.362 13.3609 10.1117C13.8066 9.72088 14.0625 9.15589 14.0625 8.5625C14.0625 7.42328 13.1392 6.5 12 6.5C10.8608 6.5 9.9375 7.42328 9.9375 8.5625C9.9375 8.9422 9.6297 9.25 9.25 9.25C8.8703 9.25 8.5625 8.9422 8.5625 8.5625C8.5625 6.66389 10.1014 5.125 12 5.125ZM5.12459 4.09375L5.23735 4.0998C5.75397 4.1558 6.15625 4.59352 6.15625 5.125C6.15625 5.69445 5.69445 6.15625 5.125 6.15625C4.55555 6.15625 4.09375 5.69445 4.09375 5.125C4.09375 4.55569 4.55533 4.09397 5.12459 4.09375Z" fill="#212121"/>
</svg>
