    <svg width="20" height="20" viewBox="0 0 20 20" fill="none" xmlns="http://www.w3.org/2000/svg">
<path d="M14.0039 0.498047L13.0078 7.50977H14.0039V9.50195H15V7.50977H15.9961V18.5059H15V19.502H18.0078V18.5059H16.9922V7.50977H20L19.0039 0.498047H14.0039ZM14.8633 1.49414H18.125L18.8477 6.49414H14.1602L14.8633 1.49414ZM10.9961 18.5059H9.00391V14.9512C9.00391 14.821 9.04622 14.7135 9.13086 14.6289C9.2155 14.5443 9.31641 14.502 9.43359 14.502H10.5664C10.6836 14.502 10.7845 14.5443 10.8691 14.6289C10.9538 14.7135 10.9961 14.821 10.9961 14.9512V18.5059ZM8.06641 14.502H3.92578C3.84766 14.2806 3.72721 14.0885 3.56445 13.9258C3.40169 13.763 3.21615 13.6491 3.00781 13.584V10.9082C3.00781 10.804 3.04688 10.7096 3.125 10.625C3.20312 10.5404 3.30078 10.498 3.41797 10.498H8.59375C8.69792 10.498 8.79232 10.5404 8.87695 10.625C8.96159 10.7096 9.00391 10.804 9.00391 10.9082V13.584C8.78255 13.6491 8.5905 13.763 8.42773 13.9258C8.26497 14.0885 8.14453 14.2806 8.06641 14.502ZM4.00391 18.5059V15.498H8.00781V18.5059H4.00391ZM3.00781 18.5059H0.996094V14.9512C0.996094 14.821 1.03841 14.7135 1.12305 14.6289C1.20768 14.5443 1.3151 14.502 1.44531 14.502H2.55859C2.67578 14.502 2.77995 14.5443 2.87109 14.6289C2.96224 14.7135 3.00781 14.821 3.00781 14.9512V18.5059ZM10.5664 13.5059H10V10.9082C10 10.5176 9.86003 10.1855 9.58008 9.91211C9.30013 9.63867 8.97135 9.50195 8.59375 9.50195H3.41797C3.02734 9.50195 2.69206 9.63867 2.41211 9.91211C2.13216 10.1855 1.99219 10.5176 1.99219 10.9082V13.5059H1.44531C1.04167 13.5059 0.69987 13.6458 0.419922 13.9258C0.139974 14.2057 0 14.5475 0 14.9512V19.502H11.9922V14.9512C11.9922 14.5475 11.8522 14.2057 11.5723 13.9258C11.2923 13.6458 10.957 13.5059 10.5664 13.5059Z" fill="#757575"/>
</svg>
