<svg width="25" height="24" viewBox="0 0 25 24" fill="none" xmlns="http://www.w3.org/2000/svg">
<path d="M17.9336 8.25391L12.4492 21.7539H14.6636L15.8116 19.0352H20.0556L21.2036 21.7539H23.418L17.9336 8.25391ZM16.6825 16.9727L17.9336 13.1219L19.1847 16.9727H16.6825ZM13.668 15.0039C13.6563 14.995 12.7028 14.2647 11.5389 13.0037C13.3942 10.4894 14.4452 7.63141 14.8741 6.28516H17.418V4.22266H10.9492V2.25391H8.88672V4.22266H2.41797V6.28516H12.6953C12.2491 7.54844 11.4273 9.54297 10.1739 11.3645C8.64203 9.32828 7.96422 7.80766 7.95531 7.79172L7.62109 7.12891L5.83984 8.16016L6.16188 8.80984C6.20359 8.88297 6.96766 10.5864 8.72641 12.8678C8.76953 12.9245 8.81313 12.9798 8.85672 13.0352C6.52609 15.7005 4.67781 16.7425 4.65391 16.7603L3.91797 17.2539L4.99609 18.9414L5.90078 18.4038C6.00391 18.3255 7.83813 17.2788 10.2133 14.6172C11.3627 15.8491 12.2392 16.5311 12.2898 16.5705L12.8711 16.9727L13.668 15.0039Z" fill="white"/>
</svg>
