<svg width="22" height="25" viewBox="0 0 22 25" fill="none" xmlns="http://www.w3.org/2000/svg">
<g clip-path="url(#clip0_332_502939)">
<g clip-path="url(#clip1_332_502939)">
<g clip-path="url(#clip2_332_502939)">
<path fill-rule="evenodd" clip-rule="evenodd" d="M11 2.8582C9.44415 2.8582 7.95201 3.47619 6.85176 4.57625C5.75151 5.67631 5.13327 7.16835 5.133 8.7242C5.133 9.3632 5.395 10.2882 5.878 11.4122C6.351 12.5142 7.002 13.7272 7.701 14.9122C8.915 16.9682 10.252 18.8982 11 19.9452C11.748 18.8982 13.085 16.9682 14.299 14.9112C14.999 13.7272 15.649 12.5142 16.122 11.4112C16.605 10.2882 16.867 9.3632 16.867 8.7242C16.8667 7.16835 16.2485 5.67631 15.1482 4.57625C14.048 3.47619 12.5559 2.8582 11 2.8582ZM5.815 3.5382C6.8406 2.51269 8.14727 1.81434 9.56977 1.53146C10.9923 1.24858 12.4667 1.39388 13.8066 1.94899C15.1465 2.50409 16.2918 3.44407 17.0974 4.65005C17.9031 5.85603 18.3331 7.27385 18.333 8.7242C18.333 9.6752 17.968 10.8312 17.47 11.9912C16.962 13.1722 16.278 14.4442 15.562 15.6572C14.13 18.0832 12.538 20.3262 11.891 21.2182L11.889 21.2212C11.7867 21.3609 11.6528 21.4745 11.4984 21.5528C11.3439 21.6312 11.1732 21.672 11 21.672C10.8268 21.672 10.6561 21.6312 10.5016 21.5528C10.3472 21.4745 10.2133 21.3609 10.111 21.2212L10.109 21.2182C9.462 20.3262 7.87 18.0832 6.439 15.6572C5.722 14.4442 5.038 13.1722 4.53 11.9912C4.032 10.8312 3.667 9.6752 3.667 8.7242C3.667 6.7792 4.439 4.9132 5.815 3.5382ZM8.407 6.1322C8.74586 5.78453 9.15038 5.5076 9.5971 5.31749C10.0438 5.12738 10.5238 5.02787 11.0093 5.02473C11.4948 5.02159 11.9761 5.11488 12.4252 5.2992C12.8744 5.48351 13.2824 5.75518 13.6258 6.09844C13.9691 6.4417 14.2408 6.84972 14.4252 7.29883C14.6096 7.74793 14.703 8.22919 14.7 8.71467C14.6969 9.20015 14.5975 9.68019 14.4075 10.1269C14.2175 10.5737 13.9406 10.9783 13.593 11.3172C12.9025 11.9905 11.9745 12.3646 11.01 12.3586C10.0456 12.3525 9.12237 11.9668 8.44033 11.2849C7.75829 10.603 7.37236 9.67981 7.36612 8.71537C7.35988 7.75094 7.73384 6.82287 8.407 6.1322ZM11 6.5242C10.4165 6.5242 9.85695 6.75599 9.44437 7.16857C9.03179 7.58115 8.8 8.14072 8.8 8.7242C8.8 9.30768 9.03179 9.86725 9.44437 10.2798C9.85695 10.6924 10.4165 10.9242 11 10.9242C11.5835 10.9242 12.1431 10.6924 12.5556 10.2798C12.9682 9.86725 13.2 9.30768 13.2 8.7242C13.2 8.14072 12.9682 7.58115 12.5556 7.16857C12.1431 6.75599 11.5835 6.5242 11 6.5242ZM16.989 18.0602C16.8944 18.0415 16.7971 18.0416 16.7026 18.0605C16.6081 18.0794 16.5182 18.1167 16.4381 18.1703C16.3581 18.2239 16.2893 18.2928 16.2358 18.373C16.1824 18.4532 16.1452 18.5431 16.1265 18.6377C16.1078 18.7323 16.1079 18.8296 16.1268 18.9241C16.1457 19.0186 16.183 19.1085 16.2366 19.1886C16.2902 19.2686 16.3591 19.3374 16.4393 19.3909C16.5195 19.4443 16.6094 19.4815 16.704 19.5002C18.004 19.7572 19.031 20.0922 19.713 20.4562C20.054 20.6382 20.275 20.8102 20.403 20.9542C20.527 21.0942 20.533 21.1702 20.533 21.1912C20.533 21.2242 20.504 21.4182 20.049 21.7252C19.62 22.0152 18.951 22.3052 18.059 22.5602C16.283 23.0682 13.787 23.3912 11 23.3912C8.213 23.3912 5.717 23.0682 3.941 22.5612C3.049 22.3052 2.38 22.0152 1.951 21.7252C1.496 21.4182 1.467 21.2242 1.467 21.1912C1.467 21.1702 1.473 21.0942 1.596 20.9552C1.723 20.8112 1.943 20.6402 2.283 20.4582C2.961 20.0952 3.983 19.7602 5.277 19.5022C5.46769 19.4641 5.63545 19.3519 5.74338 19.1901C5.85131 19.0284 5.89056 18.8304 5.8525 18.6397C5.81444 18.449 5.70219 18.2812 5.54044 18.1733C5.37869 18.0654 5.18069 18.0261 4.99 18.0642C3.626 18.3362 2.447 18.7062 1.59 19.1652C1.162 19.3952 0.78 19.6632 0.498 19.9822C0.212 20.3052 0 20.7132 0 21.1912C0 21.9682 0.545 22.5462 1.13 22.9412C1.74 23.3532 2.574 23.6952 3.539 23.9712C5.479 24.5252 8.116 24.8582 11 24.8582C13.884 24.8582 16.521 24.5252 18.462 23.9702C19.427 23.6952 20.261 23.3532 20.871 22.9402C21.455 22.5462 22 21.9682 22 21.1912C22 20.7122 21.787 20.3042 21.5 19.9802C21.216 19.6612 20.833 19.3922 20.404 19.1622C19.543 18.7022 18.359 18.3322 16.989 18.0602Z" fill="#9E9E9E"/>
</g>
</g>
</g>
<defs>
<clipPath id="clip0_332_502939">
<rect width="22" height="24" fill="white" transform="translate(0 0.890625)"/>
</clipPath>
<clipPath id="clip1_332_502939">
<rect width="22" height="24" fill="white" transform="translate(0 0.890625)"/>
</clipPath>
<clipPath id="clip2_332_502939">
<rect width="22" height="24" fill="white" transform="translate(0 0.890625)"/>
</clipPath>
</defs>
</svg>
