<svg width="60" height="58" viewBox="0 0 60 58" fill="none" xmlns="http://www.w3.org/2000/svg">
<path d="M58.6296 55.4759L1.69531 55.8499L1.74631 7.77281L48.8374 2.17969L58.6806 6.42978L58.6296 55.4759Z" stroke="#1D1D1B" stroke-width="2.48206" stroke-linecap="round" stroke-linejoin="round"/>
<path opacity="0.4" d="M21.5007 31.5733C19.3247 32.6613 14.7006 32.3893 13.3405 32.2873V23.7871C14.9028 22.9144 16.652 22.4305 18.4407 22.3761C24.1018 21.9171 24.4588 25.9802 24.4588 26.8472C24.5016 27.8287 24.2512 28.8007 23.7395 29.6394C23.2279 30.478 22.4781 31.1454 21.5857 31.5563M18.1856 37.3534C19.4047 37.4654 20.575 37.8867 21.5857 38.5775C25.1388 41.1445 25.3088 46.0066 25.3088 48.7777L31.82 48.6417C31.82 45.8366 31.6499 38.9515 26.4648 35.2624C27.9432 34.3045 29.1347 32.9642 29.9129 31.3839C30.6911 29.8035 31.027 28.042 30.8849 26.2862C30.5619 18.704 24.5098 16.086 16.9276 17.123C10.4675 18.075 7.44141 20.5231 7.44141 20.6761V49.2027L13.4595 49.0667V37.3194C15.0148 37.1792 16.5794 37.1792 18.1346 37.3194M42.8022 16.494C42.806 17.6845 42.3714 18.8348 41.5812 19.7253C40.791 20.6158 39.7006 21.1842 38.5181 21.3221C37.9603 21.3669 37.3995 21.2914 36.8734 21.1008C36.3473 20.9103 35.8682 20.609 35.4686 20.2174C35.0689 19.8258 34.7579 19.353 34.5567 18.8308C34.3554 18.3087 34.2686 17.7495 34.302 17.191C34.3039 16.0147 34.7322 14.879 35.5074 13.9944C36.2826 13.1098 37.3523 12.5362 38.5181 12.3799C39.0797 12.325 39.6466 12.3923 40.1798 12.5772C40.7129 12.7622 41.1997 13.0603 41.6068 13.4512C42.0138 13.8421 42.3314 14.3164 42.5378 14.8416C42.7441 15.3669 42.8343 15.9306 42.8022 16.494Z" fill="#1D1D1B"/>
<path d="M47.6465 7.02539V51.4304" stroke="#1D1D1B" stroke-width="1.15603" stroke-linecap="round" stroke-linejoin="round"/>
</svg>
