<svg width="22" height="22" viewBox="0 0 22 22" fill="none" xmlns="http://www.w3.org/2000/svg">
<path d="M19.9375 11C20.3172 11 20.625 11.3078 20.625 11.6875V21.3125C20.625 21.6922 20.3172 22 19.9375 22C19.5578 22 19.25 21.6922 19.25 21.3125V11.6875C19.25 11.3078 19.5578 11 19.9375 11ZM2.0625 11C2.4422 11 2.75 11.3078 2.75 11.6875V21.3125C2.75 21.6922 2.4422 22 2.0625 22C1.6828 22 1.375 21.6922 1.375 21.3125V11.6875C1.375 11.3078 1.6828 11 2.0625 11ZM12.7274 11.7367C13.08 11.5957 13.4801 11.7671 13.6211 12.1197L14.8399 15.1648C14.9484 15.1865 15.0552 15.2169 15.1592 15.2559C16.2261 15.6559 16.7674 16.8443 16.3673 17.911L15.1689 21.1084C14.9675 21.6431 14.4575 21.9982 13.8838 22H7.96217C7.38916 22 6.87667 21.643 6.6768 21.1075L5.47746 17.9102C5.3924 17.6825 5.3483 17.4402 5.3469 17.1946C5.3433 16.1928 6.0545 15.3559 7.00046 15.1656L8.21942 12.1197C8.36044 11.7671 8.76054 11.5957 9.1131 11.7367C9.4656 11.8777 9.6371 12.2778 9.4961 12.6303L8.4975 15.125H13.3421L12.3444 12.6303C12.2152 12.3072 12.3485 11.944 12.6431 11.7771L12.7274 11.7367ZM14.4366 16.5H7.40629L7.31308 16.5067C6.97789 16.5538 6.72065 16.8419 6.72189 17.1882C6.72237 17.2714 6.7373 17.3535 6.7652 17.4282L7.96459 20.6257L13.8816 20.625L15.0799 17.4283C15.2131 17.0729 15.0327 16.6769 14.6764 16.5433C14.6001 16.5147 14.5188 16.5 14.4366 16.5ZM9.625 17.1875C10.0047 17.1875 10.3125 17.4953 10.3125 17.875V19.25C10.3125 19.6297 10.0047 19.9375 9.625 19.9375C9.2453 19.9375 8.9375 19.6297 8.9375 19.25V17.875C8.9375 17.4953 9.2453 17.1875 9.625 17.1875ZM12.375 17.1875C12.7547 17.1875 13.0625 17.4953 13.0625 17.875V19.25C13.0625 19.6297 12.7547 19.9375 12.375 19.9375C11.9953 19.9375 11.6875 19.6297 11.6875 19.25V17.875C11.6875 17.4953 11.9953 17.1875 12.375 17.1875ZM19.3857 0C20.0305 0 20.5884 0.44751 20.7278 1.0764L21.9836 6.72581L22 6.875C22 8.39411 20.7691 9.625 19.25 9.625C18.4285 9.625 17.6913 9.2651 17.1875 8.69427C16.6837 9.2651 15.9465 9.625 15.125 9.625C14.3035 9.625 13.5663 9.2651 13.0625 8.69427C12.5587 9.2651 11.8215 9.625 11 9.625C10.1785 9.625 9.4413 9.2651 8.9375 8.69427C8.43365 9.2651 7.69647 9.625 6.875 9.625C6.11672 9.625 5.43026 9.3183 4.93285 8.82218L4.8125 8.69427L4.69215 8.82218C4.19474 9.3183 3.50828 9.625 2.75 9.625C1.23089 9.625 0 8.39411 0 6.875L0.01636 6.72592L1.27161 1.07499C1.41267 0.44666 1.97005 0 2.61433 0H19.3857ZM19.3854 1.37431L2.61433 1.375L1.37665 6.94301C1.41207 7.6711 2.01308 8.25 2.75 8.25C3.46503 8.25 4.05211 7.70498 4.11871 7.00747L4.13196 6.76519C4.2372 5.95993 5.5 5.99653 5.5 6.875C5.5 7.63472 6.11528 8.25 6.875 8.25C7.59003 8.25 8.17712 7.70498 8.24371 7.00747L8.25696 6.76519C8.3622 5.95993 9.625 5.99653 9.625 6.875C9.625 7.63472 10.2403 8.25 11 8.25C11.715 8.25 12.3021 7.70498 12.3687 7.00747L12.382 6.76519C12.4872 5.95993 13.75 5.99653 13.75 6.875C13.75 7.63472 14.3653 8.25 15.125 8.25C15.84 8.25 16.4271 7.70498 16.4937 7.00747L16.507 6.76519C16.6122 5.95993 17.875 5.99653 17.875 6.875C17.875 7.63472 18.4903 8.25 19.25 8.25C19.9869 8.25 20.5879 7.67113 20.6233 6.94306L19.3854 1.37431Z" fill="#212121"/>
</svg>
