<svg width="200" height="160" viewBox="0 0 200 160" fill="none" xmlns="http://www.w3.org/2000/svg">
<path opacity="0.15" d="M112.633 137.744C144.666 137.744 170.633 111.777 170.633 79.7441C170.633 47.7116 144.666 21.7441 112.633 21.7441C80.6003 21.7441 54.6328 47.7116 54.6328 79.7441C54.6328 111.777 80.6003 137.744 112.633 137.744Z" fill="#5C42FF"/>
<path d="M128.259 63.5968L128.549 63.8815L128.866 64.2043C132.83 68.3299 135.049 73.8351 135.047 79.568C135.047 84.9215 133.134 89.8979 129.9 93.7762L144.205 108.082C144.986 108.863 144.986 110.129 144.205 110.91C143.424 111.691 142.158 111.691 141.377 110.91L127.072 96.6063C124.299 98.9213 120.934 100.582 117.192 101.326C106.811 103.391 96.4183 97.8361 92.368 88.0584C88.3176 78.2806 91.7383 67.0034 100.538 61.1234C109.225 55.3189 120.765 56.3698 128.259 63.5968ZM102.76 64.4492C95.5473 69.269 92.7434 78.5128 96.0635 86.5276C99.3835 94.5423 107.903 99.0955 116.411 97.403C120.038 96.6815 123.232 94.9109 125.703 92.4446L125.721 92.4258C125.726 92.421 125.731 92.4162 125.735 92.4114C129.043 89.0958 131.047 84.5292 131.047 79.5673C131.049 74.7446 129.133 70.1191 125.722 66.7108L125.44 66.435C119.296 60.5487 109.864 59.7025 102.76 64.4492ZM104.226 70.929C105.007 70.1484 106.274 70.1491 107.054 70.9306L112.719 76.601L118.384 70.9306C119.124 70.1902 120.299 70.1506 121.085 70.8122L121.213 70.929C121.994 71.7096 121.995 72.9759 121.214 73.7574L115.546 79.432L121.214 85.1066C121.954 85.8469 121.992 87.0224 121.329 87.8079L121.213 87.935C120.431 88.7156 119.165 88.7149 118.384 87.9334L112.719 82.262L107.054 87.9334C106.315 88.6738 105.139 88.7134 104.353 88.0518L104.226 87.935C103.444 87.1544 103.443 85.8881 104.224 85.1066L109.891 79.432L104.224 73.7574C103.485 73.0171 103.446 71.8416 104.109 71.0561L104.226 70.929ZM130.21 42.832C134.484 42.8556 137.939 46.3204 137.951 50.6V56.4C137.951 57.5046 137.056 58.4 135.951 58.4C134.847 58.4 133.951 57.5046 133.951 56.4V50.6057C133.945 48.5277 132.266 46.8434 130.199 46.832H37.4871C35.4013 46.832 33.7089 48.5198 33.7031 50.6V73.728C33.7031 75.8178 35.3973 77.512 37.4871 77.512H81.0151C82.1197 77.512 83.0151 78.4074 83.0151 79.512C83.0151 80.6166 82.1197 81.512 81.0151 81.512H37.4871C33.1881 81.512 29.7031 78.027 29.7031 73.728V50.5945C29.715 46.3039 33.1965 42.832 37.4871 42.832H130.21Z" fill="#202020"/>
</svg>
