<svg width="200" height="160" viewBox="0 0 200 160" fill="none" xmlns="http://www.w3.org/2000/svg">
<path opacity="0.15" d="M105.305 140.744C137.338 140.744 163.305 114.777 163.305 82.7441C163.305 50.7116 137.338 24.7441 105.305 24.7441C73.2721 24.7441 47.3047 50.7116 47.3047 82.7441C47.3047 114.777 73.2721 140.744 105.305 140.744Z" fill="#5C42FF"/>
<path d="M104.304 66.9829L134.072 78.4629C135.626 79.0622 135.809 81.1873 134.381 82.044L125.125 87.5959L134.764 97.2088C135.505 97.9477 135.546 99.1231 134.885 99.9098L134.768 100.037C133.988 100.819 132.722 100.821 131.94 100.041L122.293 90.4219L116.746 99.655C115.888 101.083 113.763 100.898 113.165 99.3427L101.717 69.5667C101.095 67.9484 102.686 66.3591 104.304 66.9829ZM73.9202 18.4162C75.0248 18.4162 75.9202 19.3118 75.9202 20.4164C75.9202 24.6298 78.1677 28.5226 81.8162 30.6291C85.4647 32.7355 89.9597 32.7355 93.6082 30.6291C97.2568 28.5226 99.5042 24.6298 99.5042 20.4164C99.5042 19.3118 100.399 18.4162 101.504 18.4162H121.867C126.965 18.3843 131.435 21.8116 132.719 26.7143L140.167 53.5623C140.521 54.8366 139.562 56.097 138.24 56.097H119C117.895 56.097 117 55.2015 117 54.097C117 52.9924 117.895 52.097 119 52.097H135.61L128.857 27.7558C128.029 24.5938 125.162 22.3957 121.88 22.4164H103.377C102.758 27.27 99.9108 31.6091 95.6082 34.0932C90.7221 36.9142 84.7023 36.9142 79.8162 34.0932C75.5137 31.6091 72.666 27.27 72.0471 22.4164L53.5556 22.4163C50.2866 22.3957 47.4195 24.5938 46.5835 27.7836L39.8386 52.097H56.4562C57.5608 52.097 58.4562 52.9924 58.4562 54.097V90.5849H90.1282C91.2328 90.5849 92.1282 91.4804 92.1282 92.5849C92.1282 93.6895 91.2328 94.5849 90.1282 94.5849H56.4562C55.3517 94.5849 54.4562 93.6895 54.4562 92.5849V56.097H37.2082C35.8859 56.097 34.9275 54.8366 35.281 53.5623L42.7996 26.4592C44.1857 21.681 48.5817 18.3849 53.5682 18.4162H73.9202ZM107.067 72.3359L115.428 94.0822L120.182 86.1709L120.196 86.146C120.221 86.1063 120.247 86.0674 120.275 86.0291L120.182 86.1709C120.226 86.0975 120.274 86.0273 120.327 85.9606C120.374 85.9011 120.425 85.8437 120.48 85.7887L120.389 85.8859C120.405 85.8673 120.422 85.8489 120.439 85.8309L120.48 85.7887C120.495 85.7736 120.51 85.7588 120.526 85.7442C120.542 85.7287 120.559 85.7129 120.577 85.6974C120.606 85.6719 120.635 85.6476 120.665 85.6243C120.683 85.6107 120.701 85.5969 120.72 85.5835C120.775 85.5427 120.832 85.5055 120.891 85.4714L128.81 80.721L107.067 72.3359Z" fill="#202020"/>
</svg>
