<svg width="24" height="18" viewBox="0 0 24 18" fill="none" xmlns="http://www.w3.org/2000/svg">
<path d="M0.75 5.25C0.551088 5.25 0.360322 5.32902 0.21967 5.46967C0.0790176 5.61032 0 5.80109 0 6L0 15C0 15.5967 0.237053 16.169 0.65901 16.591C1.08097 17.0129 1.65326 17.25 2.25 17.25H18.75C18.9489 17.25 19.1397 17.171 19.2803 17.0303C19.421 16.8897 19.5 16.6989 19.5 16.5C19.5 16.3011 19.421 16.1103 19.2803 15.9697C19.1397 15.829 18.9489 15.75 18.75 15.75H2.25C2.05109 15.75 1.86032 15.671 1.71967 15.5303C1.57902 15.3897 1.5 15.1989 1.5 15V6C1.5 5.80109 1.42098 5.61032 1.28033 5.46967C1.13968 5.32902 0.948912 5.25 0.75 5.25ZM3.75 0.75C3.55109 0.75 3.36032 0.829018 3.21967 0.96967C3.07902 1.11032 3 1.30109 3 1.5V13.5C3 13.914 3.336 14.25 3.75 14.25H23.25C23.4489 14.25 23.6397 14.171 23.7803 14.0303C23.921 13.8897 24 13.6989 24 13.5V1.5C24 1.30109 23.921 1.11032 23.7803 0.96967C23.6397 0.829018 23.4489 0.75 23.25 0.75H3.75ZM4.5 2.25H22.5V12.75H4.5V2.25ZM7.125 9L7.002 9.007C6.71079 9.03964 6.44381 9.18462 6.25786 9.4111C6.07191 9.63757 5.98166 9.92766 6.00631 10.2197C6.03097 10.5117 6.16858 10.7825 6.38988 10.9746C6.61118 11.1667 6.89869 11.2648 7.19125 11.2482C7.48381 11.2315 7.75832 11.1014 7.9564 10.8854C8.15447 10.6695 8.26047 10.3848 8.25184 10.0919C8.24321 9.79896 8.12063 9.52098 7.91018 9.31706C7.69974 9.11315 7.41803 8.99939 7.125 9ZM13.5 3.75C13.0075 3.75 12.5199 3.847 12.0649 4.03545C11.61 4.22391 11.1966 4.50013 10.8483 4.84835C10.5001 5.19657 10.2239 5.60997 10.0355 6.06494C9.847 6.51991 9.75 7.00754 9.75 7.5C9.75 7.99246 9.847 8.48009 10.0355 8.93506C10.2239 9.39003 10.5001 9.80343 10.8483 10.1517C11.1966 10.4999 11.61 10.7761 12.0649 10.9645C12.5199 11.153 13.0075 11.25 13.5 11.25C14.4946 11.25 15.4484 10.8549 16.1516 10.1517C16.8549 9.44839 17.25 8.49456 17.25 7.5C17.25 6.50544 16.8549 5.55161 16.1516 4.84835C15.4484 4.14509 14.4946 3.75 13.5 3.75ZM13.5 5.25C13.7955 5.25 14.0881 5.3082 14.361 5.42127C14.634 5.53434 14.8821 5.70008 15.091 5.90901C15.2999 6.11794 15.4657 6.36598 15.5787 6.63896C15.6918 6.91194 15.75 7.20453 15.75 7.5C15.75 7.79547 15.6918 8.08806 15.5787 8.36104C15.4657 8.63402 15.2999 8.88206 15.091 9.09099C14.8821 9.29992 14.634 9.46566 14.361 9.57873C14.0881 9.6918 13.7955 9.75 13.5 9.75C12.9033 9.75 12.331 9.51295 11.909 9.09099C11.4871 8.66903 11.25 8.09674 11.25 7.5C11.25 6.90326 11.4871 6.33097 11.909 5.90901C12.331 5.48705 12.9033 5.25 13.5 5.25ZM19.875 3.75L19.752 3.757C19.4608 3.78964 19.1938 3.93462 19.0079 4.1611C18.8219 4.38757 18.7317 4.67766 18.7563 4.96966C18.781 5.26165 18.9186 5.5325 19.1399 5.72459C19.3612 5.91667 19.6487 6.01483 19.9412 5.99818C20.2338 5.98153 20.5083 5.85139 20.7064 5.63543C20.9045 5.41948 21.0105 5.13477 21.0018 4.84186C20.9932 4.54896 20.8706 4.27098 20.6602 4.06706C20.4497 3.86315 20.168 3.74939 19.875 3.75Z" fill="#0E9493"/>
</svg>
