<svg width="23" height="25" viewBox="0 0 23 25" fill="none" xmlns="http://www.w3.org/2000/svg">
<path d="M16.4839 12.7846C17.205 12.5868 17.9603 12.5476 18.6979 12.6696L22.2259 13.2576C22.4026 13.287 22.5603 13.3854 22.6644 13.5311C22.7684 13.6768 22.8104 13.8579 22.7809 14.0346C22.7515 14.2112 22.6531 14.3689 22.5074 14.473C22.3617 14.5771 22.1806 14.619 22.0039 14.5896L18.4769 14.0016C17.9315 13.9113 17.3731 13.9403 16.8399 14.0866L10.9019 15.7066C10.7461 15.7468 10.6105 15.8428 10.5206 15.9764C10.4308 16.1099 10.393 16.2718 10.4145 16.4313C10.4359 16.5908 10.515 16.7369 10.6369 16.842C10.7588 16.9471 10.915 17.0039 11.0759 17.0016H16.8649C17.044 17.0016 17.2156 17.0727 17.3422 17.1993C17.4688 17.3259 17.5399 17.4976 17.5399 17.6766C17.5399 17.8556 17.4688 18.0273 17.3422 18.1539C17.2156 18.2805 17.044 18.3516 16.8649 18.3516H11.0759C10.7776 18.3518 10.4829 18.2855 10.2134 18.1575C9.94388 18.0295 9.7063 17.843 9.51794 17.6116L2.29794 17.0606C2.14227 17.0482 1.98611 17.0775 1.84555 17.1455C1.70499 17.2136 1.58513 17.3179 1.49832 17.4477C1.41151 17.5775 1.36089 17.7281 1.35168 17.884C1.34247 18.0399 1.37501 18.1954 1.44594 18.3346C1.54481 18.5329 1.71531 18.6862 1.92294 18.7636L12.3559 22.6766C12.8542 22.863 13.4013 22.8728 13.9059 22.7046L21.8999 20.0406C21.9841 20.0125 22.0729 20.0013 22.1613 20.0076C22.2497 20.0139 22.3361 20.0376 22.4154 20.0772C22.4947 20.1169 22.5654 20.1717 22.6235 20.2387C22.6816 20.3057 22.7259 20.3835 22.7539 20.4676C22.782 20.5517 22.7932 20.6405 22.7869 20.7289C22.7806 20.8174 22.757 20.9037 22.7173 20.983C22.6777 21.0623 22.6228 21.133 22.5558 21.1911C22.4888 21.2492 22.4111 21.2935 22.3269 21.3216L14.3339 23.9856C13.5362 24.2513 12.6714 24.2354 11.8839 23.9406L1.44894 20.0276C0.922543 19.831 0.490191 19.4422 0.238938 18.9396C0.0608688 18.5867 -0.020133 18.1929 0.00424147 17.7984C0.028616 17.4039 0.157489 17.023 0.377642 16.6947C0.597795 16.3665 0.901303 16.1027 1.25703 15.9305C1.61276 15.7582 2.00791 15.6837 2.40194 15.7146L9.06994 16.2226C9.09494 15.8031 9.25092 15.402 9.51589 15.0759C9.78086 14.7498 10.1415 14.515 10.5469 14.4046L16.4839 12.7846ZM17.5199 0.500573C17.8119 0.493937 18.1023 0.544973 18.3745 0.650757C18.6467 0.756541 18.8954 0.914995 19.1063 1.11704C19.3171 1.31908 19.4861 1.56075 19.6034 1.82819C19.7207 2.09563 19.7841 2.38359 19.7899 2.67557V10.3126C19.7899 10.4916 19.7188 10.6633 19.5922 10.7899C19.4656 10.9165 19.294 10.9876 19.1149 10.9876C18.9359 10.9876 18.7642 10.9165 18.6376 10.7899C18.5111 10.6633 18.4399 10.4916 18.4399 10.3126V2.69257C18.4363 2.57787 18.4101 2.46501 18.3627 2.3605C18.3152 2.25599 18.2476 2.1619 18.1637 2.08363C18.0798 2.00537 17.9812 1.94448 17.8736 1.90448C17.766 1.86449 17.6516 1.84616 17.5369 1.85057H13.7899V6.42557C13.7899 7.21257 13.1529 7.85057 12.3659 7.85057H9.36594C9.1788 7.8507 8.99348 7.81398 8.82054 7.74248C8.6476 7.67099 8.49043 7.56614 8.35802 7.43391C8.2256 7.30168 8.12053 7.14466 8.04879 6.97182C7.97706 6.79898 7.94007 6.61371 7.93994 6.42657L7.93894 1.85057H4.17694C3.96827 1.84475 3.76451 1.91449 3.60318 2.04697C3.44185 2.17946 3.33381 2.36575 3.29894 2.57157L3.28894 2.67657V13.3136C3.28894 13.4926 3.21782 13.6643 3.09124 13.7909C2.96465 13.9175 2.79296 13.9886 2.61394 13.9886C2.43492 13.9886 2.26323 13.9175 2.13664 13.7909C2.01005 13.6643 1.93894 13.4926 1.93894 13.3136V2.65857C1.95336 2.07363 2.19896 1.51822 2.62197 1.11396C3.04498 0.709688 3.61094 0.489492 4.19594 0.501573L17.5199 0.500573ZM12.4399 1.85057H9.28994V6.42557C9.28994 6.46657 9.32394 6.50057 9.36594 6.50057H12.3659C12.3858 6.50057 12.4049 6.49267 12.419 6.47861C12.433 6.46454 12.4409 6.44546 12.4409 6.42557V1.85057H12.4399Z" fill="#0E9493"/>
</svg>
