<svg width="24" height="24" viewBox="0 0 24 24" fill="none" xmlns="http://www.w3.org/2000/svg">
<path d="M3.22736 7.56951C6.21749 5.97651 8.68061 3.61192 10.3377 0.745362L10.4668 0.58041C10.8526 0.209035 11.3723 0.00195312 11.9125 0.00195312C12.4527 0.00195312 12.9724 0.209035 13.3574 0.579673L16.8666 3.94854C17.2595 4.32459 17.4821 4.83959 17.4821 5.37879C17.4821 5.91799 17.2595 6.43299 16.8666 6.80905L16.6912 6.93412C15.9021 7.34032 15.1503 7.80259 14.4415 8.31559L23.1192 16.168C23.5115 16.5443 23.7338 17.0592 23.7338 17.5982C23.7338 18.1371 23.5115 18.6521 23.1191 19.0285L22.1942 19.9155C21.8084 20.2868 21.2887 20.4939 20.7485 20.4939C20.2083 20.4939 19.6886 20.2868 19.288 19.9008L11.0722 11.5374C10.5226 12.2317 10.0285 12.969 9.5958 13.7437L9.46063 13.9189C9.07463 14.2897 8.55502 14.4965 8.015 14.4965C7.47498 14.4965 6.95537 14.2896 6.5696 13.9191L3.06083 10.5507C2.6685 10.1743 2.44621 9.65941 2.44621 9.12039C2.44621 8.58137 2.6685 8.06648 3.06083 7.69017L3.22736 7.56951ZM12.0582 10.4007L20.3432 18.8349C20.4478 18.9356 20.5941 18.9939 20.7485 18.9939C20.9029 18.9939 21.0492 18.9356 21.1549 18.8337L22.0808 17.9459C22.18 17.8507 22.2338 17.726 22.2338 17.5982C22.2338 17.4703 22.18 17.3456 22.0968 17.2654L13.2502 9.26052C12.8339 9.62188 12.4361 10.0024 12.0582 10.4007ZM3.94621 9.12039C3.94621 9.24831 4.00004 9.37301 4.0994 9.46831L7.60863 12.8372C7.71367 12.9381 7.86029 12.9965 8.015 12.9965C8.13883 12.9965 8.25748 12.9591 8.35377 12.8924C10.0912 9.83668 12.7062 7.32709 15.8855 5.66233C15.9485 5.57852 15.9821 5.47966 15.9821 5.37879C15.9821 5.25121 15.9284 5.12685 15.8286 5.03135L12.3178 1.66102C12.2132 1.56024 12.0669 1.50195 11.9125 1.50195C11.7873 1.50195 11.6675 1.54027 11.5708 1.6085C9.79473 4.63249 7.19193 7.13061 4.04539 8.83282C3.98073 8.91758 3.94621 9.01795 3.94621 9.12039ZM13.5 21.5695V20.8794C13.5 19.663 12.4859 18.6895 11.25 18.6895H3.75C2.51405 18.6895 1.5 19.663 1.5 20.8794V21.5695H0.75C0.335786 21.5695 0 21.9053 0 22.3195C0 22.7337 0.335786 23.0695 0.75 23.0695H2.25H12.75H14.25C14.6642 23.0695 15 22.7337 15 22.3195C15 21.9053 14.6642 21.5695 14.25 21.5695H13.5ZM12 21.5695H3V20.8794C3 20.5054 3.32909 20.1895 3.75 20.1895H11.25C11.6709 20.1895 12 20.5054 12 20.8794V21.5695Z" fill="#212121"/>
</svg>
