<svg width="20" height="21" viewBox="0 0 20 21" fill="none" xmlns="http://www.w3.org/2000/svg">
<path d="M10.6099 0.5L10.8869 0.504C12.3091 0.543265 13.7036 0.905735 14.9649 1.56394C16.2263 2.22215 17.3212 3.15882 18.1668 4.30298C19.0124 5.44714 19.5864 6.76876 19.8455 8.1677C20.1045 9.56664 20.0417 11.0062 19.6619 12.3773C19.282 13.7483 18.595 15.015 17.653 16.0811C16.711 17.1473 15.5387 17.9851 14.2248 18.531C12.911 19.0769 11.4902 19.3165 10.07 19.2318C8.64977 19.1471 7.26749 18.7402 6.02788 18.042L1.06088 20.408C0.431876 20.708 -0.225124 20.051 0.0748765 19.422L2.43988 14.454C1.64996 13.0515 1.23507 11.4689 1.23526 9.85922C1.23545 8.24953 1.65073 6.66709 2.44097 5.26473C3.23122 3.86237 4.36973 2.68749 5.74656 1.85355C7.12338 1.01961 8.69199 0.554793 10.3009 0.504L10.6099 0.5ZM10.6109 1.98L10.3229 1.985C8.94149 2.0331 7.59706 2.44367 6.42448 3.1755C5.25189 3.90733 4.2924 4.93468 3.64229 6.15447C2.99217 7.37426 2.6743 8.74357 2.72057 10.125C2.76683 11.5065 3.17561 12.8514 3.90588 14.025C3.97163 14.1305 4.00976 14.2508 4.01675 14.3749C4.02374 14.499 3.99937 14.6228 3.94588 14.735L2.30788 18.175L5.74788 16.537C5.85993 16.4837 5.98359 16.4594 6.10749 16.4664C6.23138 16.4734 6.35153 16.5114 6.45688 16.577C7.49493 17.2227 8.66877 17.6185 9.88587 17.7332C11.103 17.8479 12.3301 17.6783 13.4705 17.2378C14.6109 16.7974 15.6334 16.0981 16.4574 15.1951C17.2815 14.2921 17.8845 13.21 18.2191 12.0342C18.5536 10.8583 18.6105 9.62089 18.3852 8.41933C18.1599 7.21777 17.6587 6.08496 16.9209 5.11016C16.1832 4.13536 15.2291 3.34523 14.1339 2.80204C13.0387 2.25885 11.8324 1.97744 10.6099 1.98H10.6109ZM13.3999 12.41C13.4717 12.3445 13.5557 12.2937 13.6472 12.2607C13.7386 12.2276 13.8357 12.2129 13.9328 12.2174C14.0299 12.2218 14.1252 12.2454 14.2133 12.2867C14.3013 12.3279 14.3803 12.3862 14.4459 12.458C14.5114 12.5298 14.5621 12.6139 14.5952 12.7053C14.6283 12.7968 14.643 12.8938 14.6385 12.9909C14.6341 13.0881 14.6105 13.1834 14.5692 13.2714C14.5279 13.3594 14.4697 13.4385 14.3979 13.504C13.3912 14.4218 12.0781 14.9305 10.7159 14.9305C9.35364 14.9305 8.04052 14.4218 7.03388 13.504C6.8888 13.3718 6.80219 13.1874 6.7931 12.9913C6.784 12.7952 6.85317 12.6036 6.98538 12.4585C7.11759 12.3134 7.30201 12.2268 7.49808 12.2177C7.69415 12.2086 7.8858 12.2778 8.03088 12.41C8.76482 13.0795 9.72243 13.4507 10.7159 13.4507C11.7093 13.4507 12.6669 13.0795 13.4009 12.41H13.3999ZM7.01688 6.667C7.99988 6.667 8.89688 7.227 9.32988 8.109C9.37594 8.19654 9.40398 8.29243 9.41234 8.39099C9.42071 8.48956 9.40923 8.5888 9.37858 8.68285C9.34793 8.7769 9.29873 8.86386 9.2339 8.93857C9.16907 9.01328 9.08992 9.07423 9.00112 9.11783C8.91233 9.16143 8.81569 9.18678 8.71693 9.19238C8.61817 9.19799 8.51929 9.18374 8.42613 9.15047C8.33297 9.1172 8.24743 9.0656 8.17456 8.9987C8.10169 8.93181 8.04297 8.85098 8.00188 8.761L7.94088 8.652C7.83592 8.4881 7.68926 8.35506 7.51592 8.26655C7.34258 8.17804 7.14882 8.13724 6.95451 8.14834C6.7602 8.15943 6.57234 8.22202 6.4102 8.32969C6.24806 8.43735 6.11749 8.58621 6.03188 8.761L5.98188 8.848C5.87725 9.00398 5.71724 9.11434 5.53426 9.15671C5.35129 9.19908 5.15905 9.1703 4.99651 9.07618C4.83398 8.98207 4.71331 8.82967 4.65897 8.64989C4.60463 8.47011 4.62068 8.27639 4.70388 8.108C4.91621 7.67564 5.24548 7.31145 5.65432 7.05674C6.06315 6.80204 6.53519 6.66702 7.01688 6.667ZM14.4119 6.667C15.3949 6.667 16.2919 7.227 16.7259 8.109C16.7687 8.19633 16.7939 8.29124 16.8 8.3883C16.8061 8.48536 16.7931 8.58269 16.7616 8.67471C16.7301 8.76673 16.6808 8.85165 16.6165 8.92463C16.5522 8.9976 16.4742 9.05719 16.3869 9.1C16.2995 9.14281 16.2046 9.168 16.1076 9.17413C16.0105 9.18027 15.9132 9.16722 15.8212 9.13574C15.7291 9.10426 15.6442 9.05497 15.5713 8.99067C15.4983 8.92637 15.4387 8.84833 15.3959 8.761L15.3359 8.652C15.2309 8.48834 15.0842 8.35554 14.911 8.26719C14.7378 8.17885 14.5442 8.13813 14.35 8.14922C14.1559 8.16032 13.9682 8.22281 13.8062 8.33031C13.6441 8.43781 13.5136 8.58645 13.4279 8.761L13.3779 8.848C13.2752 9.0085 13.1146 9.12322 12.9295 9.16829C12.7444 9.21335 12.549 9.18529 12.3841 9.08993C12.2192 8.99458 12.0974 8.83928 12.044 8.65637C11.9907 8.47347 12.01 8.27705 12.0979 8.108C12.3103 7.67549 12.6397 7.3112 13.0487 7.05648C13.4578 6.80176 13.93 6.66683 14.4119 6.667Z" fill="#0E9493"/>
</svg>
