<svg width="24" height="24" viewBox="0 0 24 24" fill="none" xmlns="http://www.w3.org/2000/svg">
<g clip-path="url(#clip0_455_5353)">
<path fill-rule="evenodd" clip-rule="evenodd" d="M12.002 2.3348C11.66 2.3348 11.3341 2.18974 11.1039 1.93422L10.1639 0.896223C9.39413 0.0499961 8.17805 -0.222064 7.12263 0.214855C6.0672 0.651774 5.39925 1.70377 5.45278 2.8448L5.51982 4.24648C5.53836 4.5929 5.41052 4.92673 5.16836 5.16913C4.9262 5.41152 4.5925 5.53968 4.25034 5.52169L2.84895 5.45062C1.70508 5.39594 0.652069 6.06407 0.215146 7.12025C-0.221777 8.17643 0.0514845 9.39322 0.898062 10.1611L1.93885 11.1059C2.19423 11.3366 2.33918 11.6629 2.33918 12.0051C2.33918 12.3474 2.19423 12.6736 1.94024 12.9031L0.899325 13.843C0.0492393 14.6124 -0.224428 15.8326 0.21528 16.8906C0.654988 17.9486 1.7129 18.6153 2.85705 18.5556L4.25595 18.4847C4.59799 18.4671 4.93093 18.5951 5.17273 18.8369C5.41453 19.0787 5.54252 19.4116 5.52495 19.7531L5.45295 21.1531C5.40047 22.2978 6.06887 23.3487 7.12398 23.7848C8.17909 24.221 9.39442 23.9489 10.1628 23.1043L11.1083 22.0627C11.3389 21.8074 11.665 21.6625 12.007 21.6625C12.3491 21.6625 12.6751 21.8074 12.9043 22.0612L13.8456 23.1026C14.6183 23.9466 15.8315 24.2157 16.8842 23.7794C17.9369 23.3431 18.604 22.2946 18.5533 21.1562L18.482 19.7516C18.4645 19.4096 18.5924 19.0767 18.8342 18.8349C19.076 18.5931 19.409 18.4651 19.7505 18.4826L21.151 18.5537C22.2953 18.6119 23.3526 17.9438 23.7913 16.8852C24.23 15.8265 23.9551 14.6064 23.1048 13.8381L22.0624 12.8977C21.8087 12.6686 21.6638 12.3424 21.6638 12.0001C21.6638 11.6579 21.8087 11.3316 22.0627 11.1022L23.1044 10.1625C23.9544 9.3943 24.2294 8.17531 23.7919 7.11714C23.3544 6.05897 22.2988 5.39018 21.1551 5.44657L19.754 5.51762C19.4147 5.53418 19.0828 5.40596 18.8417 5.16455C18.6007 4.92313 18.4729 4.59105 18.4901 4.25032L18.561 2.85064C18.6193 1.70636 17.9512 0.649038 16.8926 0.210369C15.8339 -0.2283 14.6138 0.0465872 13.8455 0.896843L12.9017 1.93246C12.6699 2.18974 12.344 2.3348 12.002 2.3348ZM7.69637 1.60079C8.1674 1.40579 8.71012 1.52721 9.05315 1.90433L9.99143 2.94043C10.5048 3.50977 11.2354 3.8348 12.002 3.8348C12.769 3.8348 13.4999 3.50947 14.0132 2.93965L14.9563 1.90485C15.3014 1.52301 15.8459 1.40033 16.3184 1.59611C16.7908 1.79188 17.089 2.26375 17.063 2.77451L16.992 4.17467C16.9535 4.93881 17.2399 5.68325 17.7803 6.22443C18.3207 6.76561 19.0647 7.05305 19.8286 7.01576L21.23 6.94469C21.7394 6.91958 22.2105 7.21805 22.4057 7.69031C22.601 8.16256 22.4783 8.70658 22.0991 9.04923L21.0576 9.98877C20.4884 10.5029 20.1638 11.2336 20.1638 12.0001C20.1638 12.7667 20.4884 13.4974 21.0573 14.0112L22.0996 14.9515C22.4787 15.294 22.6013 15.8385 22.4056 16.311C22.2098 16.7834 21.7379 17.0816 21.2272 17.0556L19.827 16.9846C19.062 16.9452 18.3156 17.2322 17.7736 17.7742C17.2315 18.3162 16.9446 19.0626 16.984 19.8282L17.055 21.2276C17.0774 21.7311 16.7797 22.199 16.3099 22.3937C15.84 22.5884 15.2986 22.4683 14.9552 22.0932L14.0174 21.0557C13.504 20.4871 12.7735 20.1625 12.007 20.1625C11.2406 20.1625 10.51 20.4871 9.9963 21.056L9.05264 22.0955C8.7103 22.4718 8.16792 22.5933 7.69703 22.3986C7.22614 22.204 6.92784 21.735 6.95117 21.226L7.02297 19.8301C7.06235 19.0646 6.77543 18.3182 6.23339 17.7762C5.69135 17.2342 4.94498 16.9472 4.17943 16.9866L2.77997 17.0576C2.26848 17.0843 1.79656 16.7868 1.60041 16.3149C1.40426 15.843 1.52634 15.2986 1.90526 14.9557L2.9456 14.0163C3.51454 13.5024 3.83918 12.7717 3.83918 12.0051C3.83918 11.2386 3.51454 10.5079 2.94568 9.99409L1.90607 9.05034C1.52822 8.70759 1.40632 8.1648 1.60122 7.69365C1.79613 7.2225 2.26586 6.92446 2.77515 6.9488L4.17297 7.01969C4.93861 7.05995 5.68668 6.77266 6.22954 6.22927C6.77239 5.68589 7.05896 4.93754 7.01789 4.17055L6.9511 2.77383C6.92725 2.26528 7.22535 1.79578 7.69637 1.60079Z" fill="#212121"/>
<path fill-rule="evenodd" clip-rule="evenodd" d="M6.75 12.0019C6.75 14.9014 9.10051 17.2519 12 17.2519C14.8995 17.2519 17.25 14.9014 17.25 12.0019C17.25 9.10245 14.8995 6.75195 12 6.75195C9.10051 6.75195 6.75 9.10245 6.75 12.0019ZM15.75 12.0019C15.75 14.073 14.0711 15.7519 12 15.7519C9.92893 15.7519 8.25 14.073 8.25 12.0019C8.25 9.93088 9.92893 8.25195 12 8.25195C14.0711 8.25195 15.75 9.93088 15.75 12.0019Z" fill="#212121"/>
</g>
<defs>
<clipPath id="clip0_455_5353">
<rect width="24" height="24" fill="white"/>
</clipPath>
</defs>
</svg>
