<svg width="18" height="18" viewBox="0 0 18 18" fill="none" xmlns="http://www.w3.org/2000/svg">
<path d="M9.57812 16.4902C9.36979 15.5918 9.028 14.7585 8.55273 13.9902C8.07747 13.222 7.50456 12.5482 6.83398 11.9688C6.16341 11.3893 5.4082 10.9206 4.56836 10.5625C3.72852 10.2044 2.83984 9.99284 1.90234 9.92773C1.8763 9.77148 1.86003 9.61849 1.85352 9.46875C1.84701 9.31901 1.84375 9.16602 1.84375 9.00977C1.84375 7.9681 2.03906 6.99154 2.42969 6.08008C2.82031 5.16862 3.35417 4.37435 4.03125 3.69727C4.70833 3.02018 5.5026 2.48633 6.41406 2.0957C7.32552 1.70508 8.30208 1.50977 9.34375 1.50977C9.34375 1.50977 9.35026 1.50977 9.36328 1.50977C9.3763 1.50977 9.38932 1.50977 9.40234 1.50977C9.51953 2.47331 9.78971 3.38151 10.2129 4.23438C10.6361 5.08724 11.1764 5.84245 11.834 6.5C12.4915 7.15755 13.2467 7.69792 14.0996 8.12109C14.9525 8.54427 15.8607 8.81445 16.8242 8.93164C16.8242 8.94466 16.8275 8.95768 16.834 8.9707C16.8405 8.98372 16.8438 8.99675 16.8438 9.00977C16.8438 10.0124 16.6517 10.9629 16.2676 11.8613C15.8835 12.7598 15.3659 13.5475 14.7148 14.2246C14.0638 14.9017 13.2956 15.4421 12.4102 15.8457C11.5247 16.2493 10.5807 16.4642 9.57812 16.4902ZM8.25 16.4121C8.15885 16.3991 8.06771 16.3861 7.97656 16.373C7.88542 16.36 7.79427 16.3405 7.70312 16.3145C7.02604 16.1712 6.38477 15.9336 5.7793 15.6016C5.17383 15.2695 4.63021 14.8724 4.14844 14.4102C3.66667 13.9479 3.25 13.4206 2.89844 12.8281C2.54688 12.2357 2.27995 11.6074 2.09766 10.9434C2.87891 11.0215 3.61458 11.2135 4.30469 11.5195C4.99479 11.8255 5.61979 12.2194 6.17969 12.7012C6.73958 13.1829 7.22461 13.7428 7.63477 14.3809C8.04492 15.0189 8.34766 15.709 8.54297 16.4512C8.49089 16.4512 8.44206 16.4479 8.39648 16.4414C8.35091 16.4349 8.30208 16.4251 8.25 16.4121ZM16.6875 7.91602C15.8802 7.78581 15.1217 7.53516 14.4121 7.16406C13.7025 6.79297 13.071 6.33073 12.5176 5.77734C11.9642 5.22396 11.5052 4.58919 11.1406 3.87305C10.776 3.1569 10.5352 2.39518 10.418 1.58789C11.2253 1.7181 11.9837 1.96875 12.6934 2.33984C13.403 2.71094 14.0345 3.17318 14.5879 3.72656C15.1413 4.27995 15.6003 4.91471 15.9648 5.63086C16.3294 6.347 16.5703 7.10872 16.6875 7.91602ZM9.34375 0.494141C8.15885 0.494141 7.05208 0.71875 6.02344 1.16797C4.99479 1.61719 4.09635 2.22591 3.32812 2.99414C2.5599 3.76237 1.95117 4.66081 1.50195 5.68945C1.05273 6.7181 0.828125 7.82487 0.828125 9.00977C0.828125 9.153 0.834635 9.30273 0.847656 9.45898C0.860677 9.61523 0.873698 9.76497 0.886719 9.9082C0.873698 9.92122 0.863932 9.92773 0.857422 9.92773C0.850911 9.92773 0.841146 9.92773 0.828125 9.92773C0.945312 10.9824 1.24479 11.972 1.72656 12.8965C2.20833 13.821 2.82682 14.625 3.58203 15.3086C4.33724 15.9922 5.20312 16.5293 6.17969 16.9199C7.15625 17.3105 8.19141 17.5059 9.28516 17.5059C9.28516 17.5059 9.28841 17.5059 9.29492 17.5059C9.30143 17.5059 9.30469 17.5059 9.30469 17.5059C9.31771 17.5059 9.32422 17.5059 9.32422 17.5059C9.32422 17.5059 9.33073 17.5059 9.34375 17.5059C10.5156 17.5059 11.6159 17.2812 12.6445 16.832C13.6732 16.3828 14.5716 15.7741 15.3398 15.0059C16.1081 14.2376 16.7168 13.3392 17.166 12.3105C17.6152 11.2819 17.8398 10.1816 17.8398 9.00977C17.8398 7.82487 17.6152 6.7181 17.166 5.68945C16.7168 4.66081 16.1081 3.76237 15.3398 2.99414C14.5716 2.22591 13.6732 1.61719 12.6445 1.16797C11.6159 0.71875 10.5156 0.494141 9.34375 0.494141Z" fill="#757575"/>
</svg>
