<svg width="22" height="23" viewBox="0 0 22 23" fill="none" xmlns="http://www.w3.org/2000/svg">
<path d="M4.85211 6.0001C3.51802 7.4901 2.77109 9.41429 2.75051 11.4142C2.69981 15.9839 6.43078 19.7415 11.0005 19.7501C15.5638 19.7587 19.2505 16.0621 19.2505 11.5001C19.2505 7.00814 15.6605 3.35279 11.1939 3.2501C11.1687 3.24929 11.1437 3.25355 11.1202 3.26263C11.0968 3.27171 11.0754 3.28542 11.0573 3.30294C11.0393 3.32047 11.025 3.34145 11.0152 3.36463C11.0054 3.38781 11.0004 3.41272 11.0005 3.43787V7.03135" stroke="#FF0000" stroke-width="1.5" stroke-linecap="round" stroke-linejoin="round"/>
<path d="M10.0277 12.4712L6.6332 7.6157C6.58624 7.54843 6.56446 7.46677 6.57166 7.38505C6.57887 7.30332 6.61462 7.22674 6.67263 7.16873C6.73064 7.11071 6.80723 7.07497 6.88895 7.06776C6.97068 7.06055 7.05233 7.08233 7.11961 7.1293L11.9751 10.5238C12.2729 10.7383 12.4743 11.0614 12.5357 11.4233C12.5972 11.7851 12.5137 12.1566 12.3033 12.4574C12.093 12.7581 11.7727 12.964 11.4117 13.0304C11.0507 13.0969 10.6781 13.0185 10.3745 12.8123C10.2402 12.7193 10.1229 12.6039 10.0277 12.4712Z" fill="#FF0000"/>
</svg>
