<svg width="18" height="14" viewBox="0 0 18 14" fill="none" xmlns="http://www.w3.org/2000/svg">
<path d="M16.8828 11.0234C16.8828 11.0234 16.8861 11.0169 16.8926 11.0039C16.8991 10.9909 16.9089 10.9779 16.9219 10.9648C16.9089 10.9779 16.8991 10.9876 16.8926 10.9941C16.8861 11.0007 16.8828 11.0104 16.8828 11.0234ZM16.1797 12.8789C16.1797 12.918 16.1667 12.9473 16.1406 12.9668C16.1146 12.9863 16.0885 12.9961 16.0625 12.9961H14.2852C14.2591 12.9961 14.2331 12.9863 14.207 12.9668C14.181 12.9473 14.168 12.918 14.168 12.8789V12H15.1641C15.3464 12 15.5221 11.974 15.6914 11.9219C15.8607 11.8698 16.0234 11.8047 16.1797 11.7266V12.8789ZM2.17578 11.0039C1.90234 11.0039 1.66797 10.9062 1.47266 10.7109C1.27734 10.5156 1.17969 10.2812 1.17969 10.0078V7.99609C1.17969 7.44922 1.375 6.98047 1.76562 6.58984C2.15625 6.19922 2.625 6.00391 3.17188 6.00391H14.168C14.7279 6.00391 15.2031 6.19922 15.5938 6.58984C15.9844 6.98047 16.1797 7.44922 16.1797 7.99609V10.0078C16.1797 10.2812 16.082 10.5156 15.8867 10.7109C15.6914 10.9062 15.4505 11.0039 15.1641 11.0039H2.17578ZM3.17188 12.8789C3.17188 12.918 3.15885 12.9473 3.13281 12.9668C3.10677 12.9863 3.08073 12.9961 3.05469 12.9961H1.29688C1.25781 12.9961 1.22852 12.9863 1.20898 12.9668C1.18945 12.9473 1.17969 12.918 1.17969 12.8789V11.7266C1.32292 11.8047 1.47917 11.8698 1.64844 11.9219C1.81771 11.974 1.99349 12 2.17578 12H3.17188V12.8789ZM0.457031 11.0234C0.457031 11.0104 0.453776 11.0007 0.447266 10.9941C0.440755 10.9876 0.4375 10.9779 0.4375 10.9648C0.4375 10.9779 0.440755 10.9909 0.447266 11.0039C0.453776 11.0169 0.457031 11.0234 0.457031 11.0234ZM4.08984 1.53125C4.46745 1.375 5.15104 1.24805 6.14062 1.15039C7.13021 1.05273 7.97656 1.00391 8.67969 1.00391H9.67578C10.2747 1.00391 10.9453 1.04948 11.6875 1.14062C12.4297 1.23177 12.944 1.34245 13.2305 1.47266L14.0508 5.00781H3.30859L4.08984 1.53125ZM15.1055 5.16406L15.0664 5.00781H15.8477C15.8997 5.00781 15.9453 4.99805 15.9844 4.97852C16.0234 4.95898 16.056 4.9362 16.082 4.91016C16.1081 4.88411 16.1309 4.85156 16.1504 4.8125C16.1699 4.77344 16.1797 4.72786 16.1797 4.67578V4.32422C16.1797 4.23307 16.1471 4.15495 16.082 4.08984C16.0169 4.02474 15.9388 3.99219 15.8477 3.99219H14.832L14.168 1.08203C14.168 0.860677 13.9727 0.678386 13.582 0.535156C13.1914 0.391927 12.7422 0.28125 12.2344 0.203125C11.7266 0.125 11.2253 0.072917 10.7305 0.046875C10.2357 0.020833 9.88411 0.0078125 9.67578 0.0078125H8.67969C8.47135 0.0078125 8.06771 0.020833 7.46875 0.046875C6.86979 0.072917 6.2513 0.125 5.61328 0.203125C4.97526 0.28125 4.40885 0.391927 3.91406 0.535156C3.41927 0.678386 3.17188 0.860677 3.17188 1.08203L2.50781 3.99219H1.49219C1.40104 3.99219 1.32617 4.02474 1.26758 4.08984C1.20898 4.15495 1.17969 4.23307 1.17969 4.32422V4.67578C1.17969 4.72786 1.1862 4.77344 1.19922 4.8125C1.21224 4.85156 1.23177 4.88411 1.25781 4.91016C1.29688 4.9362 1.33268 4.95898 1.36523 4.97852C1.39779 4.99805 1.4401 5.00781 1.49219 5.00781H2.27344L2.23438 5.16406C1.63542 5.35938 1.14062 5.71419 0.75 6.22852C0.359375 6.74284 0.164062 7.33203 0.164062 7.99609V12.8789C0.164062 13.1914 0.27474 13.4551 0.496094 13.6699C0.717448 13.8848 0.984375 13.9922 1.29688 13.9922H3.05469C3.36719 13.9922 3.63086 13.8848 3.8457 13.6699C4.06055 13.4551 4.16797 13.1914 4.16797 12.8789V12H13.1719V12.8789C13.1719 13.1914 13.2826 13.4551 13.5039 13.6699C13.7253 13.8848 13.9857 13.9922 14.2852 13.9922H16.0625C16.362 13.9922 16.6224 13.8848 16.8438 13.6699C17.0651 13.4551 17.1758 13.1914 17.1758 12.8789V7.99609C17.1758 7.33203 16.9805 6.74284 16.5898 6.22852C16.1992 5.71419 15.7044 5.35938 15.1055 5.16406ZM13.6797 8.99219C13.5365 8.99219 13.416 8.94336 13.3184 8.8457C13.2207 8.74805 13.1719 8.63411 13.1719 8.50391C13.1719 8.36068 13.2207 8.24023 13.3184 8.14258C13.416 8.04492 13.5365 7.99609 13.6797 7.99609C13.8099 7.99609 13.9238 8.04492 14.0215 8.14258C14.1191 8.24023 14.168 8.36068 14.168 8.50391C14.168 8.63411 14.1191 8.74805 14.0215 8.8457C13.9238 8.94336 13.8099 8.99219 13.6797 8.99219ZM13.6797 7C13.263 7 12.9082 7.14648 12.6152 7.43945C12.3223 7.73242 12.1758 8.08724 12.1758 8.50391C12.1758 8.92057 12.3223 9.27539 12.6152 9.56836C12.9082 9.86133 13.263 10.0078 13.6797 10.0078C14.0833 10.0078 14.4316 9.86133 14.7246 9.56836C15.0176 9.27539 15.1641 8.92057 15.1641 8.50391C15.1641 8.08724 15.0176 7.73242 14.7246 7.43945C14.4316 7.14648 14.0833 7 13.6797 7ZM3.67969 8.99219C3.53646 8.99219 3.41602 8.94336 3.31836 8.8457C3.2207 8.74805 3.17188 8.63411 3.17188 8.50391C3.17188 8.36068 3.2207 8.24023 3.31836 8.14258C3.41602 8.04492 3.53646 7.99609 3.67969 7.99609C3.8099 7.99609 3.92383 8.04492 4.02148 8.14258C4.11914 8.24023 4.16797 8.36068 4.16797 8.50391C4.16797 8.63411 4.11914 8.74805 4.02148 8.8457C3.92383 8.94336 3.8099 8.99219 3.67969 8.99219ZM3.67969 7C3.26302 7 2.9082 7.14648 2.61523 7.43945C2.32227 7.73242 2.17578 8.08724 2.17578 8.50391C2.17578 8.92057 2.32227 9.27539 2.61523 9.56836C2.9082 9.86133 3.26302 10.0078 3.67969 10.0078C4.08333 10.0078 4.43164 9.86133 4.72461 9.56836C5.01758 9.27539 5.16406 8.92057 5.16406 8.50391C5.16406 8.08724 5.01758 7.73242 4.72461 7.43945C4.43164 7.14648 4.08333 7 3.67969 7Z" fill="#757575"/>
</svg>
