<svg width="20" height="20" viewBox="0 0 20 20" fill="none" xmlns="http://www.w3.org/2000/svg">
<g clip-path="url(#clip0_617_1530)">
<path d="M7.04127 17.9833H4.14554L3.2524 15.2656L0 12.9318L1.24459 9.15514L0.561399 7.076L2.35405 5.78559L3.59574 2.02688H7.59745L9.9457 0.333984L12.2951 2.02166H15.2013L16.0985 4.755L19.3323 7.07774L18.0947 10.837L18.779 12.9191L16.9875 14.2066L15.7464 17.9838H11.7267L9.38488 19.6657L7.04127 17.9833Z" fill="#004CFF"/>
<path d="M4.6696 9.56458L3.16552 10.909L7.98076 14.0445C7.98076 14.0445 8.41518 14.3439 8.69941 14.268C8.7979 14.2239 8.88629 14.16 8.95912 14.0804C9.03195 14.0007 9.08767 13.907 9.12284 13.8049C9.51677 12.7805 10.0335 11.8077 10.6618 10.9078C11.3562 9.86927 12.1673 8.9137 13.0792 8.05974C13.7817 7.45691 14.5246 6.90284 15.3028 6.40143L14.7329 5.28313C13.8964 5.75682 13.1189 6.3278 12.4166 6.98417C11.5612 7.74549 10.1165 9.25366 10.1171 9.27545C10.1178 9.29723 8.6254 10.9469 8.27717 11.8169L4.6696 9.56458Z" fill="white"/>
</g>
<defs>
<clipPath id="clip0_617_1530">
<rect width="19.3323" height="19.3317" fill="white" transform="translate(0 0.333984)"/>
</clipPath>
</defs>
</svg>
